<?xml version="1.0" standalone="no"?>
<!DOCTYPE svg PUBLIC "-//W3C//DTD SVG 1.1//EN" "http://www.w3.org/Graphics/SVG/1.1/DTD/svg11.dtd" >
<svg xmlns="http://www.w3.org/2000/svg" xmlns:xlink="http://www.w3.org/1999/xlink" version="1.1">
<metadata>
Created by FontForge 20170731 at Fri Apr  3 12:13:22 2009
 By Aleksey,,,
Copyright (c) M. Klein    feb_2004
</metadata>
<defs>
<font id="SantanaXtraCondensed" horiz-adv-x="111" >
  <font-face 
    font-family="SantanaXtraCondensed"
    font-weight="500"
    font-stretch="normal"
    units-per-em="1000"
    panose-1="2 0 6 8 4 0 0 2 0 4"
    ascent="800"
    descent="-200"
    x-height="532"
    cap-height="709"
    bbox="-50 -261 523 811"
    underline-thickness="50"
    underline-position="-175"
    unicode-range="U+0005-E00D"
  />
<missing-glyph 
 />
    <glyph glyph-name=".notdef" 
 />
    <glyph glyph-name=".null" horiz-adv-x="0" 
 />
    <glyph glyph-name="nonmarkingreturn" horiz-adv-x="333" 
 />
    <glyph glyph-name="breve" 
d="M86 657q-5 -20 -11.5 -31.5t-19.5 -11.5t-19 11.5t-11 31.5h-16q1 -8 4.5 -18.5t8.5 -19.5t13.5 -15.5t20.5 -6.5t20.5 6.5t13.5 15.5t8 19.5t4 18.5h-16z" />
    <glyph glyph-name="dotaccent" 
d="M47 658v-72h18v72h-18z" />
    <glyph glyph-name="ring" 
d="M56 586q15 0 26 11t11 26t-11.5 26t-26.5 11t-26 -11t-11 -26t11.5 -26t25.5 -11h1zM55 602q-10 0 -16 6t-6 15t6.5 15t15.5 6t15 -6t6 -15t-6.5 -15t-14.5 -6z" />
    <glyph glyph-name="hungarumlaut" unicode="&#xa;" 
d="M52 658h-24l-20 -70h10zM103 658h-24l-20 -70h10z" />
    <glyph glyph-name="ogonek" 
d="M87 -76q-8 -8 -15.5 -12.5t-18.5 -4.5q-8 0 -15 5.5t-7 16.5q0 10 3.5 19t11.5 22l19 30h-20l-12 -19q-11 -17 -15.5 -28.5t-4.5 -24.5q0 -17 11 -28t28 -11q15 0 26.5 7t19.5 17z" />
    <glyph glyph-name="caron" 
d="M57 621h-3l-21 37h-15l37 -74h2l36 74h-16z" />
    <glyph glyph-name="dotlessi" unicode="&#xd;" horiz-adv-x="71" 
d="M46 532h-20v-532h20v532z" />
    <glyph glyph-name="fraction" horiz-adv-x="117" 
d="M167 705h-18l-199 -717h19z" />
    <glyph glyph-name="fi" horiz-adv-x="151" 
d="M110 733q-6 4 -9 5t-11 1q-11 0 -18.5 -6t-12.5 -14q-12 -19 -15 -54t-3 -81v-52h-23v-18h23v-514h20v514h30v18h-30v52q0 54 3 84.5t11 42.5q8 11 17 11q4 0 10 -2q4 -2 5 -3zM132 577v80h-20v-80h20zM132 532h-20v-532h20v532z" />
    <glyph glyph-name="fl" horiz-adv-x="151" 
d="M110 733q-6 4 -9 5t-11 1q-11 0 -18.5 -6t-12.5 -14q-12 -19 -15 -54t-3 -81v-52h-23v-18h23v-514h20v514h30v18h-30v52q0 54 3 84.5t11 42.5q8 11 17 11q4 0 10 -2q4 -2 5 -3zM132 0v727h-20v-727h20z" />
    <glyph glyph-name="Lslash" horiz-adv-x="160" 
d="M59 343l40 35v23l-40 -35v343h-22v-362l-26 -22v-23l26 22v-324h112v19h-90v324z" />
    <glyph glyph-name="lslash" horiz-adv-x="71" 
d="M46 404v323h-20v-339l-24 -21v-21l24 21v-367h20v383l24 21v21z" />
    <glyph glyph-name="Zcaron" horiz-adv-x="164" 
d="M17 0h131v19h-110l106 671v19h-118v-19h98l-107 -671v-19zM84 764h-2l-38 37h-12l50 -68h2l50 68h-12z" />
    <glyph glyph-name="zcaron" horiz-adv-x="132" 
d="M114 532h-93v-18h74l-81 -495v-19h105v18h-86l81 495v19zM67 621h-3l-21 37h-15l37 -74h2l36 74h-16z" />
    <glyph glyph-name="space" unicode=" " 
 />
    <glyph glyph-name="exclam" unicode="!" horiz-adv-x="71" 
d="M46 709h-20l3 -553h14zM26 80v-80h20v80h-20z" />
    <glyph glyph-name="quotedbl" unicode="&#x22;" horiz-adv-x="138" 
d="M28 709l6 -160h12l6 160h-24zM86 709l6 -160h12l6 160h-24z" />
    <glyph glyph-name="numbersign" unicode="#" horiz-adv-x="226" 
d="M124 258l-36 -258h18l36 258h46l2 16h-46l23 158h46l2 16h-46l34 244h-18l-34 -244h-48l34 244h-18l-34 -244h-47l-2 -16h47l-23 -158h-47l-2 -16h47l-36 -258h18l36 258h48zM126 274h-48l23 158h48z" />
    <glyph glyph-name="dollar" unicode="$" horiz-adv-x="186" 
d="M99 657q10 -3 16.5 -12.5t9.5 -22.5t4 -29t1 -31h20q0 42 -10.5 74.5t-40.5 36.5v75h-17v-75q-29 -6 -42 -38.5t-13 -85.5q0 -57 14 -100.5t41 -89.5v-332q-13 3 -20.5 11.5t-11 22t-4.5 31.5t-1 39h-20q0 -54 11.5 -84.5t45.5 -35.5v-81h17v82q19 4 31 19.5t19 36.5
t9.5 45.5t2.5 48.5q0 31 -4.5 56t-12.5 48.5t-19.5 46t-25.5 48.5v296zM82 397q-20 37 -27.5 71.5t-7.5 81.5q0 40 8.5 70t26.5 37v-260zM99 323q10 -20 18 -38t13.5 -36t8 -37.5t2.5 -43.5t-2 -47.5t-7 -42.5t-13 -32.5t-20 -17.5v295z" />
    <glyph glyph-name="percent" unicode="%" horiz-adv-x="321" 
d="M147 539q0 86 -13.5 133t-46.5 47t-46.5 -47t-13.5 -133t13.5 -133t46.5 -47t46.5 47t13.5 132v1zM266 718h-18l-198 -729h19zM87 375q-12 0 -20 12t-12.5 34t-6 51.5t-1.5 65.5t1.5 65.5t6 51.5t12.5 34t20 12t19.5 -12t12 -34t6.5 -51.5t2 -65.5t-1.5 -65.5t-6 -51.5
t-12 -34t-19.5 -12h-1zM293 167q0 86 -13.5 133t-46.5 47t-46.5 -47t-13.5 -133t13.5 -133t46.5 -47t46.5 47t13.5 132v1zM233 3q-12 0 -20 12t-12.5 34t-6 51.5t-1.5 65.5t1.5 65.5t6 51.5t12.5 34t20 12t19.5 -12t12 -34t6.5 -51.5t2 -65.5t-1.5 -65.5t-6 -51.5t-12 -34
t-19.5 -12h-1z" />
    <glyph glyph-name="ampersand" unicode="&#x26;" horiz-adv-x="204" 
d="M186 -1q-5 14 -14 43t-19 65q9 59 11 115.5t2 126.5h-20q0 -64 -1 -120.5t-3 -98.5q-4 20 -12 52t-16.5 68.5t-16.5 73t-13 65.5q21 51 35 94.5t14 91.5q0 51 -13 74.5t-33 23.5q-47 0 -47 -110q0 -45 8 -91t19 -91q-23 -55 -35.5 -107.5t-12.5 -112.5q0 -91 18 -133
t48 -42q26 0 40 26t19 59h2q5 -21 9.5 -38t10.5 -34h20zM60 562q0 55 8.5 74.5t19.5 19.5q12 0 19 -24.5t7 -59.5q0 -38 -11.5 -82.5t-24.5 -83.5q-7 34 -12.5 71t-5.5 84v1zM39 155q0 60 9 109t23 94q6 -32 14 -66.5t16.5 -69t17 -66.5t16.5 -59q-7 -42 -19.5 -68.5
t-30.5 -26.5q-12 0 -20.5 12t-14 32.5t-8.5 48t-3 59.5v1z" />
    <glyph glyph-name="quotesingle" unicode="'" horiz-adv-x="72" 
d="M24 709l6 -160h12l6 160h-24z" />
    <glyph glyph-name="parenleft" unicode="(" horiz-adv-x="112" 
d="M103 -179q-35 91 -51 169q-20 95 -22 171t-2 131q0 91 6.5 164.5t19.5 136.5q10 47 22.5 88.5t28.5 79.5l-16 6q-17 -42 -30.5 -82.5t-22.5 -85.5q-13 -63 -19.5 -136.5t-8.5 -170.5q-2 -95 5 -169.5t21 -138.5q10 -46 23 -87t30 -82z" />
    <glyph glyph-name="parenright" unicode=")" horiz-adv-x="112" 
d="M25 -185q17 41 30 82t23 87q14 64 21 138.5t5 169.5q-2 97 -8 170.5t-20 136.5q-9 45 -22.5 85.5t-30.5 82.5l-16 -6q16 -38 29 -79.5t22 -88.5q14 -63 20 -136.5t6 -164.5q0 -55 -2 -131t-22 -171q-16 -78 -51 -169z" />
    <glyph glyph-name="asterisk" unicode="*" horiz-adv-x="201" 
d="M94 620l1 -1l-5 -82h20l-5 82l1 1l70 -45l10 18l-76 36v1l76 37l-10 18l-70 -47l-1 1l5 84h-20l5 -84l-1 -1l-69 47l-10 -18l75 -37v-1l-75 -36l10 -18z" />
    <glyph glyph-name="plus" unicode="+" horiz-adv-x="317" 
d="M168 245h118v16h-118v185h-18v-185h-118v-16h118v-201h18v201z" />
    <glyph glyph-name="comma" unicode="," horiz-adv-x="60" 
d="M10 -80h12l27 160h-24z" />
    <glyph glyph-name="hyphen" unicode="-" horiz-adv-x="144" 
d="M27 342v-16h90v16h-90z" />
    <glyph glyph-name="period" unicode="." horiz-adv-x="60" 
d="M20 80v-80h20v80h-20z" />
    <glyph glyph-name="slash" unicode="/" horiz-adv-x="172" 
d="M164 739h-20l-136 -751h20z" />
    <glyph glyph-name="zero" unicode="0" horiz-adv-x="204" 
d="M28 346q0 -113 5.5 -183.5t15.5 -109.5t23.5 -53t29.5 -14t29.5 14t23.5 53t15.5 109.5t5.5 183.5q0 107 -5.5 176.5t-15.5 110t-23.5 56.5t-29.5 16t-29.5 -16t-23.5 -56.5t-15.5 -109.5t-5.5 -176v-1zM102 689q26 0 40 -83.5t14 -259.5q0 -107 -4.5 -173.5t-12 -104
t-17 -51t-20.5 -13.5t-20.5 13.5t-17 51t-12 104t-4.5 173.5q0 176 14 259.5t39 83.5h1z" />
    <glyph glyph-name="one" unicode="1" horiz-adv-x="169" 
d="M37 646l9 -16l65 38v-668h20v698h-6z" />
    <glyph glyph-name="two" unicode="2" horiz-adv-x="204" 
d="M177 19h-138q6 62 19 111t29 89.5t33 76t31 72t23 76t9 88.5q0 29 -3.5 60t-13 56t-26 41t-41.5 16q-22 0 -36 -12t-22 -29t-11 -36.5t-3 -35.5h20q0 14 2 31t8 31.5t16.5 24t26.5 9.5q18 0 30.5 -14.5t19.5 -37t10 -50.5t3 -55q0 -47 -9 -85.5t-23 -75t-31.5 -72.5
t-33 -78.5t-28 -93.5t-17.5 -117l5 -9h151v19z" />
    <glyph glyph-name="three" unicode="3" horiz-adv-x="204" 
d="M67 363q48 -10 70.5 -55.5t22.5 -136.5q0 -32 -3.5 -62t-11.5 -53t-20 -37t-29 -14q-15 0 -25 8t-16 21t-8.5 30t-2.5 34h-20q0 -22 4.5 -42t13.5 -35t22.5 -24t31.5 -9q42 0 63 51.5t21 142.5q0 54 -9.5 89.5t-23 56.5t-28 31t-24.5 13v2q35 16 55.5 60t20.5 122
q0 71 -19.5 110t-54.5 39q-26 0 -46 -27t-20 -76h20q0 34 12 60t35 26q26 0 39.5 -36.5t13.5 -95.5q0 -73 -19 -118t-65 -59v-16z" />
    <glyph glyph-name="four" unicode="4" horiz-adv-x="204" 
d="M21 214v-14h114v-200h20v200h29v18h-29v480h-17zM40 218l49 206q12 51 23.5 100.5t22.5 100.5h1q-1 -51 -1 -101v-101v-205h-95z" />
    <glyph glyph-name="five" unicode="5" horiz-adv-x="204" 
d="M32 347l17 -4q10 38 22 59t29 21q28 0 43.5 -57t15.5 -154q0 -56 -5.5 -95.5t-14.5 -64.5t-20 -36t-23 -11q-14 0 -23.5 10t-15.5 26.5t-9 37.5t-3 44h-20q0 -26 4 -50.5t12.5 -43.5t22 -30t32.5 -11q16 0 31.5 12t26.5 38.5t18 69.5t7 105q0 104 -19.5 165.5t-57.5 61.5
q-19 0 -30 -12t-17 -26h-2l24 271h91v19h-108z" />
    <glyph glyph-name="six" unicode="6" horiz-adv-x="204" 
d="M39 354q0 106 7 171.5t17 101.5t22.5 48.5t24.5 12.5q23 0 30.5 -22.5t7.5 -48.5h20q0 42 -16.5 65t-42.5 23q-23 0 -39.5 -18.5t-27.5 -64.5t-16.5 -124.5t-5.5 -198.5q0 -100 8 -161t20.5 -94.5t28 -44.5t30.5 -11q37 0 57.5 55t20.5 170q0 111 -20 169t-58 58
q-23 0 -39.5 -22t-27.5 -64h-1zM42 271q0 28 5 55.5t14 49t20.5 34.5t25.5 13q16 0 27.5 -20t18 -51t9.5 -68.5t3 -71.5q0 -29 -2 -65t-8 -67.5t-17.5 -53t-30.5 -21.5q-30 0 -47.5 70.5t-17.5 194.5v1z" />
    <glyph glyph-name="seven" unicode="7" horiz-adv-x="204" 
d="M184 692h-163v-19h142v-2l-104 -671h23l102 680v12z" />
    <glyph glyph-name="eight" unicode="8" horiz-adv-x="204" 
d="M86 368q-6 -2 -17 -10t-21.5 -28.5t-18 -55.5t-7.5 -90q0 -51 6.5 -88t17.5 -61t25.5 -35.5t30.5 -11.5t30.5 11.5t25.5 35.5t17.5 61t6.5 88t-7 85.5t-17.5 56t-21.5 31t-18 11.5v1q3 1 12 6t19 21.5t17.5 48t7.5 87.5q0 86 -20 129.5t-52 43.5q-31 0 -51.5 -42.5
t-20.5 -130.5q0 -53 7 -84.5t16.5 -48t18.5 -22.5t14 -8v-1zM50 532q0 82 16 119t36 37q23 0 37.5 -40.5t14.5 -115.5q0 -51 -5.5 -82.5t-14 -48.5t-17.5 -23t-15 -6q-9 0 -18.5 7.5t-17 26t-12 49t-4.5 76.5v1zM42 182q0 48 5.5 82t14.5 56.5t19.5 33t20.5 10.5
q9 0 19.5 -10t19.5 -32t15 -56.5t6 -83.5q0 -91 -18 -134.5t-42 -43.5q-23 0 -41.5 42t-18.5 135v1z" />
    <glyph glyph-name="nine" unicode="9" horiz-adv-x="204" 
d="M166 339q0 -92 -5.5 -156t-15 -103.5t-22.5 -57t-28 -17.5t-24 9.5t-13.5 24.5t-6 33t-1.5 35h-20q0 -56 15.5 -87.5t49.5 -31.5q28 0 46 29.5t27.5 83t13 128t3.5 165.5q0 100 -8 161t-20.5 94.5t-28 44.5t-30.5 11q-35 0 -56.5 -53t-21.5 -172q0 -36 3 -75.5t12 -73.5
t24 -56t39 -22q16 0 27.5 9.5t19.5 23t12.5 28t7.5 25.5h1zM163 414q0 -18 -4 -43t-12 -47.5t-20.5 -38t-28.5 -15.5q-18 0 -29 21.5t-17.5 54t-9 69t-2.5 66.5q0 43 3 81t10 66t18 44t27 16q11 0 22.5 -11.5t21 -42.5t15.5 -84t6 -135v-1z" />
    <glyph glyph-name="colon" unicode=":" horiz-adv-x="60" 
d="M20 487v-80h20v80h-20zM20 80v-80h20v80h-20z" />
    <glyph glyph-name="semicolon" unicode=";" horiz-adv-x="60" 
d="M22 487v-80h20v80h-20zM10 -80h12l27 160h-24z" />
    <glyph glyph-name="less" unicode="&#x3c;" horiz-adv-x="317" 
d="M45 252v2l246 174v20l-264 -187v-16l264 -187v20z" />
    <glyph glyph-name="equal" unicode="=" horiz-adv-x="317" 
d="M32 309h254v16h-254v-16zM32 181h254v16h-254v-16z" />
    <glyph glyph-name="greater" unicode="&#x3e;" horiz-adv-x="317" 
d="M273 252l-246 -174v-20l264 187v16l-264 187v-20l246 -174v-2z" />
    <glyph glyph-name="question" unicode="?" horiz-adv-x="149" 
d="M81 156q-3 75 6 136t22 110q7 26 12.5 49t9.5 45t6.5 44.5t2.5 47.5q0 19 -2.5 41.5t-9 41.5t-19 31.5t-32.5 12.5q-12 0 -24 -7.5t-21.5 -24.5t-16 -45.5t-6.5 -71.5l19 -3q0 59 13.5 97t37.5 38q16 0 28.5 -24.5t12.5 -81.5q0 -24 -1.5 -44.5t-5 -41.5t-9 -43.5
t-12.5 -51.5q-17 -72 -22 -135t-3 -120h14zM65 80v-80h20v80h-20z" />
    <glyph glyph-name="at" unicode="@" horiz-adv-x="387" 
d="M281 226q-13 -7 -35 -15.5t-60 -8.5q-29 0 -54.5 9.5t-44 28.5t-29 47.5t-10.5 65.5q0 35 12.5 67.5t35.5 58.5t55.5 41.5t72.5 15.5q55 0 87 -29q15 -14 23.5 -34t8.5 -48q0 -32 -13 -60.5t-27 -43.5q-24 -27 -45 -27q-14 0 -16 10t6 33l44 136h-20l-5 -20h-2
q-5 11 -14.5 16t-22.5 5q-20 0 -39 -8.5t-39 -31.5q-17 -20 -30.5 -46t-13.5 -61q0 -23 10.5 -36.5t33.5 -13.5q26 0 47 17.5t30 34.5h2q-4 -8 -6 -19.5t5 -20.5q6 -12 27 -12q20 0 38 12.5t34 33.5q14 20 23.5 46.5t9.5 54.5q0 60 -36.5 94.5t-99.5 34.5q-43 0 -79 -16
t-62 -43.5t-40.5 -64t-14.5 -76.5q0 -42 13 -73.5t34.5 -52.5t50 -31.5t59.5 -10.5q30 0 56.5 8t48.5 22zM126 327q0 49 41 97q15 18 31.5 25.5t29.5 7.5q17 0 24 -7t7 -15q0 -4 -4.5 -18t-12.5 -37q-4 -12 -13 -26.5t-22 -28t-27.5 -22.5t-29.5 -9q-24 0 -24 32v1z" />
    <glyph glyph-name="A" unicode="A" horiz-adv-x="179" 
d="M126 247l21 -247h23l-66 709h-29l-66 -709h22l22 247h73zM124 266h-69l18 204q5 53 8.5 105.5t6.5 109.5h3q3 -57 6.5 -107t8.5 -104z" />
    <glyph glyph-name="B" unicode="B" horiz-adv-x="200" 
d="M94 376q12 5 23 14.5t19.5 27.5t13.5 46.5t5 71.5q0 51 -7.5 84t-21 53t-32.5 28t-43 8h-21v-709h23q61 0 88.5 44t27.5 143q0 46 -5 78.5t-14.5 54.5t-23.5 35t-32 19v2zM52 690h6q34 0 54.5 -35t20.5 -119q0 -152 -71 -152h-10v306zM52 365h9q48 0 67 -47.5t19 -130.5
q0 -90 -22.5 -129t-67.5 -39h-5v346z" />
    <glyph glyph-name="C" unicode="C" horiz-adv-x="206" 
d="M156 156q0 -24 -2.5 -51t-7.5 -49.5t-14 -37t-22 -14.5q-11 0 -21.5 11.5t-19 48t-14 105.5t-5.5 185q0 110 5.5 178.5t14.5 107t19.5 52t20.5 13.5q40 0 40 -136h22q0 154 -61 154q-25 0 -39.5 -23t-24.5 -68q-11 -48 -15 -118t-4 -159q0 -104 4.5 -171.5t12.5 -109.5
q10 -48 26 -68t40 -20q19 0 31.5 16t20.5 41t11.5 55t3.5 58h-22z" />
    <glyph glyph-name="D" unicode="D" horiz-adv-x="199" 
d="M56 0q28 0 49 17t35 57.5t21 109t7 171.5q0 113 -8.5 182.5t-23.5 107.5t-35.5 51t-44.5 13h-25v-709h25zM53 19v671h5q19 0 35.5 -14t28 -51t18 -102t6.5 -167q0 -99 -6 -164t-17 -103.5t-27.5 -54t-37.5 -15.5h-5z" />
    <glyph glyph-name="E" unicode="E" horiz-adv-x="186" 
d="M51 385v305h101v19h-123v-709h128v19h-106v347h86v19h-86z" />
    <glyph glyph-name="F" unicode="F" horiz-adv-x="181" 
d="M50 0v366h84v19h-84v305h102v19h-124v-709h22z" />
    <glyph glyph-name="G" unicode="G" horiz-adv-x="204" 
d="M175 310h-63v-19h41v-261q-5 -9 -14.5 -17.5t-23.5 -8.5q-33 0 -48 84.5t-15 266.5q0 183 15.5 266.5t43.5 83.5q21 0 30 -30t11 -100h23q-2 73 -17 110.5t-47 37.5q-17 0 -31.5 -14t-25.5 -54.5t-17.5 -112.5t-6.5 -188q0 -103 4.5 -173.5t15 -113.5t26 -62t38.5 -19
q12 0 22 4.5t17.5 11.5t13 14t8.5 13v281z" />
    <glyph glyph-name="H" unicode="H" horiz-adv-x="215" 
d="M182 709h-22v-327h-104v327h-22v-709h22v363h104v-363h22v709z" />
    <glyph glyph-name="I" unicode="I" horiz-adv-x="75" 
d="M49 0v709h-22v-709h22z" />
    <glyph glyph-name="J" unicode="J" horiz-adv-x="120" 
d="M0 -5q9 -9 28 -9q11 0 19.5 7t14.5 24.5t9 47.5t3 76v568h-22v-568q0 -43 -1.5 -69.5t-5 -41.5t-8.5 -20.5t-12 -5.5q-6 0 -10.5 3t-7.5 7z" />
    <glyph glyph-name="K" unicode="K" horiz-adv-x="204" 
d="M44 -30h-22h22zM52 404v110v195h-22v-709h22v385h24l94 -385h21l-100 407l76 302h-20l-48 -194q-5 -18 -9.5 -38t-8 -36t-6 -26.5l-2.5 -10.5h-19h-2z" />
    <glyph glyph-name="L" unicode="L" horiz-adv-x="160" 
d="M136 19h-90v690h-22v-709h112v19z" />
    <glyph glyph-name="M" unicode="M" horiz-adv-x="284" 
d="M141 20q-7 87 -25.5 258t-46.5 431h-32v-709h22q0 256 -0.5 427t-5.5 259h2q8 -88 26 -259t45 -427h30q29 261 47.5 430.5t24.5 255.5h2q-4 -88 -4.5 -259.5t-0.5 -426.5h22v709h-32q-28 -256 -47 -428.5t-25 -260.5h-2z" />
    <glyph glyph-name="N" unicode="N" horiz-adv-x="221" 
d="M170 24q-5 45 -14.5 112.5t-22.5 154.5t-29.5 192t-35.5 226h-34v-709h22q0 249 -0.5 422.5t-3.5 262.5h2q2 -25 9 -75t16 -112t19 -131.5t20 -133.5t18 -117.5t13 -83.5t5 -32h33v709h-22v-226t1 -192t2 -154.5t4 -112.5h-2z" />
    <glyph glyph-name="O" unicode="O" horiz-adv-x="231" 
d="M30 354q0 -107 6 -178t17 -113t26.5 -59.5t35.5 -17.5q19 0 35 17.5t27 59.5t17 113t6 178t-6 178t-17 113.5t-27 60t-35 17.5q-20 0 -35.5 -17.5t-26.5 -59.5t-17 -113t-6 -178v-1zM115 706q13 0 24.5 -16.5t20 -57t13.5 -108t5 -169.5t-5 -169t-13.5 -107.5t-20 -57
t-24.5 -16.5t-24.5 16.5t-20 57t-13.5 107.5t-5 169t5 169.5t13.5 108t19.5 57t24 16.5h1z" />
    <glyph glyph-name="P" unicode="P" horiz-adv-x="192" 
d="M51 0v335h1q25 0 45.5 8t35 28.5t22.5 57t8 93.5q0 99 -24.5 143t-76.5 44h-33v-709h22zM51 354v336h13q38 0 57.5 -38t19.5 -129q0 -51 -6.5 -84t-18 -52t-26.5 -26t-31 -7h-8z" />
    <glyph glyph-name="Q" unicode="Q" horiz-adv-x="231" 
d="M106 7q-11 5 -21 25.5t-17.5 61t-11.5 104.5t-4 157q0 102 5 169.5t13.5 108t19.5 57t24 16.5h1q13 0 24.5 -16.5t20 -57t13.5 -108t5 -169.5q0 -91 -4 -154t-11 -104t-16.5 -62t-20.5 -27v97h-20v-98zM106 -245h20v232q17 4 31 25t23.5 63.5t14.5 111t5 167.5
q0 107 -6 178t-17 113.5t-27 60t-35 17.5q-20 0 -35.5 -17.5t-26.5 -59.5t-17 -113t-6 -178v-1q0 -101 5.5 -169.5t15.5 -111t24 -62.5t31 -24v-232z" />
    <glyph glyph-name="R" unicode="R" horiz-adv-x="195" 
d="M78 344q13 4 27.5 12.5t26.5 27.5t20 52t8 86q0 55 -7.5 91t-21 57.5t-32.5 30t-42 8.5h-30v-709h22v341h8l110 -341h22zM49 360v330h11q18 0 32.5 -8.5t24.5 -28t15.5 -51.5t5.5 -79t-6 -78.5t-17.5 -50t-26.5 -26.5t-33 -8h-6z" />
    <glyph glyph-name="S" unicode="S" horiz-adv-x="199" 
d="M165 614q0 18 -3 37.5t-10.5 35t-19.5 26t-30 10.5q-28 0 -42 -19t-22 -45q-6 -19 -8 -41t-2 -48q0 -32 5 -59.5t13 -50.5q7 -21 17.5 -43.5t31.5 -62.5q12 -23 19.5 -38t12 -25.5t7.5 -18.5t5 -15q6 -21 9.5 -44.5t3.5 -51.5q0 -24 -2 -49t-7 -45q-5 -21 -16.5 -42
t-33.5 -21q-17 0 -26.5 11t-14 26t-5.5 31.5t-1 27.5h-22q0 -23 3 -44t11 -36.5t21 -24.5t34 -9q19 0 31.5 8.5t20.5 21t12 26t7 22.5q6 21 8 46t2 51q0 33 -4 59t-11 47q-4 13 -13 34t-31 63q-18 37 -30 61.5t-20 44.5q-6 19 -10.5 45.5t-4.5 56.5q0 47 8 81q6 20 16 36
t26 16q15 0 24 -11.5t13 -27t5 -30.5t1 -22h22z" />
    <glyph glyph-name="T" unicode="T" horiz-adv-x="209" 
d="M189 709h-170v-19h74v-690h22v690h74v19z" />
    <glyph glyph-name="U" unicode="U" horiz-adv-x="222" 
d="M189 709h-22v-549q0 -30 -1 -58t-6.5 -50t-17 -35t-32.5 -13q-20 0 -31 13.5t-16 35.5t-6.5 50t-1.5 57v549h-22v-548q0 -41 3 -73t11.5 -55t23.5 -35t39 -12q25 0 41 12.5t24 35.5t11 55.5t3 71.5v548z" />
    <glyph glyph-name="V" unicode="V" horiz-adv-x="180" 
d="M90 22q-7 104 -14 187.5t-15 166.5l-31 333h-21l66 -709h31l65 709h-21l-30 -329q-8 -82 -15 -167.5t-13 -190.5h-2z" />
    <glyph glyph-name="W" unicode="W" horiz-adv-x="241" 
d="M122 686q2 -92 5.5 -174.5t8.5 -168.5l17 -343h30l46 709h-21l-20 -351q-5 -86 -9.5 -168t-8.5 -170h-2q-3 87 -6.5 170t-8.5 170l-18 349h-29l-16 -344q-4 -86 -8 -171.5t-5 -173.5h-2q-4 87 -10 172.5t-11 172.5l-21 344h-21l48 -709h30l15 336q4 85 8 171t7 179h2z
" />
    <glyph glyph-name="X" unicode="X" horiz-adv-x="186" 
d="M94 405h-2l-59 304h-20l70 -347l-73 -362h20l62 316h2l62 -316h20l-73 362l70 347h-20z" />
    <glyph glyph-name="Y" unicode="Y" horiz-adv-x="164" 
d="M156 709h-20l-27 -184q-7 -46 -13 -92.5t-11 -97.5h-2q-7 51 -13 97t-14 93l-28 184h-20l64 -408v-301h22v301z" />
    <glyph glyph-name="Z" unicode="Z" horiz-adv-x="164" 
d="M17 0h131v19h-110l106 671v19h-118v-19h98l-107 -671v-19z" />
    <glyph glyph-name="bracketleft" unicode="[" horiz-adv-x="94" 
d="M80 -156v17h-46v861h46v17h-66v-895h66z" />
    <glyph glyph-name="backslash" unicode="\" horiz-adv-x="172" 
d="M8 739l136 -751h20l-136 751h-20z" />
    <glyph glyph-name="bracketright" unicode="]" horiz-adv-x="91" 
d="M13 -156h66v895h-66v-17h46v-861h-46v-17z" />
    <glyph glyph-name="asciicircum" unicode="^" horiz-adv-x="317" 
d="M158 687h2l109 -227h17l-119 245h-16l-119 -245h17z" />
    <glyph glyph-name="underscore" unicode="_" horiz-adv-x="212" 
d="M217 -259v23h-225v-23h225z" />
    <glyph glyph-name="grave" unicode="`" 
d="M23 658l51 -70h14l-38 70h-27z" />
    <glyph glyph-name="a" unicode="a" horiz-adv-x="174" 
d="M149 0v3q-7 11 -7 74v264q0 63 -2.5 102.5t-8.5 62t-16.5 30.5t-26.5 8t-26.5 -10.5t-17 -29t-9.5 -43t-3 -51.5h20q0 21 2 41.5t6 37.5t10.5 27.5t16.5 10.5q25 0 30 -42.5t5 -120.5v-18q-33 -15 -52.5 -39t-29 -53.5t-12 -62.5t-2.5 -65q0 -40 4 -66.5t11.5 -42.5
t17 -22.5t20.5 -6.5q21 0 31 15t13 25h1q1 -6 2 -14.5t4 -13.5h19zM122 62q-6 -25 -17 -41t-24 -16q-17 0 -26 28t-9 94q0 27 2 57t9.5 57.5t22.5 50.5t42 36v-266z" />
    <glyph glyph-name="b" unicode="b" horiz-adv-x="191" 
d="M29 0h18l-1 43h2q3 -8 6.5 -17.5t8.5 -17.5t12.5 -14t18.5 -6q14 0 26 13t21 44.5t14.5 84.5t5.5 134t-5 135t-13.5 86t-20.5 45.5t-26 13.5q-11 0 -18.5 -5.5t-13 -14t-9 -18t-5.5 -17.5h-1v238h-20v-727zM49 439q3 14 7 29.5t9.5 28.5t12.5 21.5t16 8.5q19 0 32.5 -62
t14.5 -201q1 -138 -13.5 -198.5t-33.5 -60.5q-9 0 -16 9t-12.5 23.5t-9.5 33.5t-7 40v328z" />
    <glyph glyph-name="c" unicode="c" horiz-adv-x="175" 
d="M149 458q0 35 -11.5 60.5t-36.5 25.5q-18 0 -32 -14t-23.5 -46t-14.5 -85t-5 -131q0 -87 4.5 -142t13.5 -85.5t22 -41.5t30 -11q22 0 38 25t16 85h-20q0 -51 -9.5 -72t-23.5 -21q-12 0 -21 9.5t-16 38t-10.5 80t-3.5 135.5q0 136 15 197.5t38 61.5q18 0 24 -21t6 -48h20z
" />
    <glyph glyph-name="d" unicode="d" horiz-adv-x="191" 
d="M143 43l-2 -43h20v727h-20v-232h-1q-3 7 -6 15.5t-8 16t-12 12.5t-17 5q-15 0 -27.5 -13t-21.5 -45t-14 -86t-5 -136q0 -81 5.5 -134t14.5 -84.5t21 -44.5t26 -13q11 0 18.5 5t12.5 13.5t8.5 18t5.5 18.5h2zM96 5q-20 0 -34 60.5t-13 198.5q1 140 14 201.5t33 61.5
q8 0 15 -8.5t13 -22t10 -29t7 -28.5v-328q-5 -43 -16 -74.5t-28 -31.5h-1z" />
    <glyph glyph-name="e" unicode="e" horiz-adv-x="183" 
d="M155 269q0 81 -6.5 140t-18.5 94q-14 41 -38 41q-11 0 -22.5 -10.5t-20.5 -36.5q-12 -31 -17 -87.5t-5 -137.5q0 -91 5 -147t15 -87q9 -29 21.5 -39.5t27.5 -10.5q29 0 44 32q7 17 11 41t6 51h-20q-3 -57 -12.5 -82t-26.5 -25q-12 0 -21 11t-16 40.5t-10.5 81t-3.5 131.5
h108zM47 287q0 84 5.5 132t13 72t15 30t11.5 6q7 0 14.5 -13t14 -42t10.5 -74.5t4 -110.5h-88z" />
    <glyph glyph-name="f" unicode="f" horiz-adv-x="80" 
d="M88 733q-6 4 -9 5t-11 1q-11 0 -18 -6t-13 -14q-11 -19 -14.5 -54t-3.5 -81v-52h-23v-18h23v-514h20v514h30v18h-30v52q0 54 3 84.5t11 42.5q8 11 17 11q4 0 10 -2q4 -2 5 -3z" />
    <glyph glyph-name="g" unicode="g" horiz-adv-x="191" 
d="M144 508h-2q-5 17 -15 26.5t-22 9.5q-13 0 -26.5 -12t-24.5 -43.5t-18 -87t-7 -142.5q0 -143 18.5 -207t54.5 -64q15 0 24 9t14 20h2v-18q0 -44 -0.5 -76.5t-2.5 -57t-5 -42t-7 -31.5q-12 -36 -32 -36q-5 0 -13 4.5t-14 19.5q-4 9 -5.5 23t-2.5 41h-20q1 -27 4.5 -45
t8.5 -29q7 -14 17 -22.5t24 -8.5t27.5 10t21.5 34q5 17 8.5 35.5t6 43.5t3.5 58.5t1 79.5v532h-20zM49 259q0 85 6 137.5t15 81.5t18.5 39t16.5 10q11 0 20.5 -17.5t16.5 -42.5v-402q-3 -24 -12.5 -42t-26.5 -18q-28 0 -41 67.5t-13 185.5v1z" />
    <glyph glyph-name="h" unicode="h" horiz-adv-x="190" 
d="M159 0v425q0 39 -3.5 61t-10.5 36q-8 15 -18.5 18.5t-17.5 3.5q-11 0 -20.5 -7t-16.5 -18q-7 -10 -12 -22t-8 -20h-1v250h-20v-727h20v440q8 24 15.5 40t14.5 27q13 20 27 20t22 -16q7 -15 8 -42t1 -59v-410h20z" />
    <glyph glyph-name="i" unicode="i" horiz-adv-x="71" 
d="M46 587v80h-20v-80h20zM46 532h-20v-532h20v532z" />
    <glyph glyph-name="j" unicode="j" horiz-adv-x="71" 
d="M-20 -223q2 -2 5.5 -3.5t5.5 -2.5q6 -2 13 -2q22 0 34 29q8 18 10 49t2 77v608h-20v-608q0 -89 -10 -120q-7 -18 -16 -18q-5 0 -9 2t-7 5zM50 587v80h-20v-80h20z" />
    <glyph glyph-name="k" unicode="k" horiz-adv-x="144" 
d="M68 325l54 207h-21l-27 -115q-3 -11 -6.5 -26.5t-7.5 -30t-6.5 -25l-2.5 -10.5h-6h-2q0 2 0.5 14.5t1.5 35t1 44.5v308h-20v-727h20v311h7l65 -311h21z" />
    <glyph glyph-name="l" unicode="l" horiz-adv-x="107" 
d="M34 724v-595q0 -74 7 -107.5t36 -33.5q8 0 13.5 3.5t7.5 5.5l-6 16q-3 -3 -6 -5.5t-9 -2.5q-18 0 -20.5 39t-2.5 112v578z" />
    <glyph glyph-name="m" unicode="m" horiz-adv-x="276" 
d="M241 0v425q0 32 -2.5 55t-10.5 39q-12 25 -32 25q-17 0 -29 -17q-11 -15 -22 -52h-2q-1 14 -3 26.5t-7 21.5q-11 21 -30 21q-14 0 -26 -17q-6 -8 -11 -21.5t-11 -30.5h-2l2 57h-20v-532h20v438q8 21 14 37t11 27t10.5 18t11.5 7q10 0 17 -19q5 -16 7 -41t2 -56v-411h20
v443q6 20 11.5 34.5t10.5 25.5t11 17.5t12 6.5q8 0 12 -5t7 -13t5 -20.5t3 -26t1 -27.5v-24v-411h20z" />
    <glyph glyph-name="n" unicode="n" horiz-adv-x="190" 
d="M159 0v425q0 39 -3.5 61t-10.5 36q-8 15 -18.5 18.5t-17.5 3.5q-11 0 -20.5 -7t-16.5 -18t-12 -23t-8 -20h-3l2 56h-20v-532h20v440q8 24 15.5 40t14.5 27q14 20 25 20t15.5 -5t8.5 -13q7 -15 8 -40.5t1 -57.5v-411h20z" />
    <glyph glyph-name="o" unicode="o" horiz-adv-x="193" 
d="M166 266q0 90 -6 144.5t-16 84.5t-22.5 39.5t-24.5 9.5t-24.5 -9.5t-22.5 -39.5t-16 -84.5t-6 -144.5q0 -86 5 -140.5t14 -85t22 -41.5t28 -11q16 0 29 13t22 45t13.5 85t4.5 134v1zM97 4q-8 0 -17 9.5t-16 37.5t-11.5 79.5t-4.5 134.5t4.5 134.5t11.5 79.5t16 37.5
t17 9.5t17 -9.5t16 -37.5t11.5 -79.5t4.5 -134.5q0 -78 -4 -128.5t-10.5 -80t-15.5 -41t-18 -11.5h-1z" />
    <glyph glyph-name="p" unicode="p" horiz-adv-x="191" 
d="M29 -248h20v276h1q7 -18 18 -29q7 -7 14 -9t12 -2q28 0 43 45q4 12 8.5 30.5t8 46.5t5.5 66t2 88q0 88 -5 141.5t-15 85.5q-8 31 -21 42t-27 11q-8 0 -13.5 -4t-11.5 -10q-7 -8 -12 -20.5t-7 -21.5h-2l2 44h-20v-780zM49 439q12 53 24 72q11 16 20 16q20 0 32 -48
q8 -29 12 -82.5t4 -132.5q0 -101 -6.5 -152.5t-13.5 -71.5q-12 -35 -28 -35t-28 25q-12 23 -16 65v344z" />
    <glyph glyph-name="q" unicode="q" horiz-adv-x="191" 
d="M161 -248v780h-20l2 -44h-2q-2 9 -7 21t-12 21q-9 14 -25 14q-14 0 -26 -11t-22 -42q-10 -32 -15 -85.5t-5 -141.5q0 -83 6.5 -141.5t16.5 -87.5q19 -47 44 -47q6 0 13.5 3t15.5 12q4 5 7.5 11t7.5 17h1v-279h20zM141 95q-5 -42 -15 -63q-11 -27 -29 -27q-16 0 -29 38
q-6 20 -12.5 72.5t-6.5 148.5q0 28 1 58.5t3 59t4.5 53t6.5 40.5q14 52 33 52q11 0 20 -16q5 -9 11.5 -26.5t12.5 -45.5v-344z" />
    <glyph glyph-name="r" unicode="r" horiz-adv-x="113" 
d="M47 491l2 41h-20v-532h20v446q10 36 22 59q11 22 22 22q4 0 8 -1q4 -2 6 -4l2 16q-3 2 -7 4q-6 2 -11 2q-8 0 -13 -4t-10 -9q-6 -8 -12.5 -23.5t-10.5 -26.5z" />
    <glyph glyph-name="s" unicode="s" horiz-adv-x="152" 
d="M127 474q0 18 -4 30.5t-10 20.5q-13 19 -36 19q-12 0 -20 -6.5t-16 -20.5q-16 -29 -16 -83q0 -19 2.5 -38t6.5 -34q5 -21 13.5 -38.5t22.5 -40.5q11 -18 19.5 -34t14.5 -38q5 -17 6.5 -35t1.5 -38q0 -39 -3.5 -63.5t-8.5 -38.5q-12 -31 -29 -31q-12 0 -21.5 14.5
t-9.5 49.5h-20q0 -25 6.5 -41.5t10.5 -21.5q9 -13 18.5 -15.5t17.5 -2.5q14 0 25 11.5t19 29.5q9 21 12 49t3 62q0 29 -3 47.5t-7 31.5q-5 18 -13 35.5t-24 43.5q-16 25 -21.5 38t-10.5 31q-3 14 -5.5 32.5t-2.5 35.5q0 23 3 42t9 31q4 8 9 13.5t12 5.5q16 0 23 -16.5
t7 -36.5h19z" />
    <glyph glyph-name="t" unicode="t" horiz-adv-x="107" 
d="M34 532h-25v-18h25v-385q0 -74 7 -107.5t36 -33.5q8 0 13.5 3.5t7.5 5.5l-6 16q-3 -3 -6 -5.5t-9 -2.5q-18 0 -20.5 39t-2.5 112v358h32v18h-32v112l-20 -10v-102z" />
    <glyph glyph-name="u" unicode="u" horiz-adv-x="190" 
d="M31 532v-425q0 -39 3.5 -61t10.5 -36q8 -15 18.5 -18.5t17.5 -3.5q11 0 20.5 7t16.5 18t12 23t8 20h3l-2 -56h20v532h-20v-440q-16 -46 -30 -68q-13 -19 -26 -19q-10 0 -14.5 4.5t-8.5 12.5q-7 15 -8 42t-1 59v409h-20z" />
    <glyph glyph-name="v" unicode="v" horiz-adv-x="129" 
d="M64 25q-4 79 -9 141t-10 122l-19 244h-19l46 -532h21l47 532h-19l-19 -243q-4 -48 -7 -80.5t-5 -60.5l-4 -56t-3 -67z" />
    <glyph glyph-name="w" unicode="w" horiz-adv-x="176" 
d="M88 492q1 -33 2.5 -58t3 -50.5t3.5 -55.5t4 -72l12 -256h25l28 532h-20l-10 -248q-2 -31 -3.5 -59.5t-3 -57.5t-2.5 -60.5t-1 -68.5q-2 68 -4 125.5t-6 120.5l-16 248h-23l-16 -248q-2 -31 -3.5 -59.5t-2 -58t-1.5 -60.5t-2 -68q0 74 -4.5 132t-6.5 103l-11 259h-19
l27 -532h25l12 245q2 40 4 70.5t3.5 58l3 55t2.5 63.5z" />
    <glyph glyph-name="x" unicode="x" horiz-adv-x="142" 
d="M128 532h-19l-36 -238h-2l-38 238h-19v-1l44 -251l-49 -279v-1h19l42 263h2l42 -263h19v1l-48 279l43 251v1z" />
    <glyph glyph-name="y" unicode="y" horiz-adv-x="148" 
d="M138 532h-20l-20 -226q-5 -54 -9.5 -108t-9.5 -116h-2q-5 58 -12 114t-14 110l-29 226h-20l68 -499l-13 -134q-3 -34 -8 -60.5t-10 -44.5q-5 -17 -11.5 -27.5t-14.5 -10.5q-5 0 -9 3l-4 4l-4 4l-7 -16q8 -7 13 -9q4 -3 12 -3q14 0 24 12.5t17 31.5q7 18 12.5 50.5
t8.5 61.5z" />
    <glyph glyph-name="z" unicode="z" horiz-adv-x="132" 
d="M114 532h-93v-18h74l-81 -495v-19h105v18h-86l81 495v19z" />
    <glyph glyph-name="braceleft" unicode="{" horiz-adv-x="120" 
d="M-4 285q10 -5 19.5 -13.5t15.5 -19.5q8 -13 12 -29.5t4 -42.5v-195q0 -44 5 -68t13 -40q9 -17 25 -25t33 -8v17q-27 0 -42 27q-14 27 -14 100v177q0 66 -21 97q-14 20 -33 29v3q20 10 33 29q21 31 21 97v175q0 73 14 100q15 27 42 27v17q-17 0 -33 -8t-25 -25
q-8 -16 -13 -40t-5 -68v-193q0 -26 -4 -42.5t-12 -29.5q-6 -11 -15.5 -19.5t-19.5 -13.5v-15z" />
    <glyph glyph-name="bar" unicode="|" horiz-adv-x="67" 
d="M23 -250h20v1000h-20v-1000z" />
    <glyph glyph-name="braceright" unicode="}" horiz-adv-x="120" 
d="M123 300q-10 5 -19 13.5t-16 19.5q-8 13 -12 29.5t-4 42.5v193q0 44 -5 68t-13 40q-9 17 -25 25t-33 8v-17q28 0 42 -27q8 -14 11 -39.5t3 -60.5v-175q0 -66 21 -97q13 -19 33 -29v-3q-19 -9 -33 -29q-21 -31 -21 -97v-177q0 -35 -3 -60.5t-11 -39.5q-14 -27 -42 -27v-17
q17 0 33 8t25 25q8 16 13 40t5 68v195q0 26 4 42.5t12 29.5q7 11 16 19.5t19 13.5v15z" />
    <glyph glyph-name="asciitilde" unicode="~" horiz-adv-x="317" 
d="M46 237q8 16 18.5 27.5t27.5 11.5q11 0 21.5 -3t26.5 -12l27 -15q15 -8 27.5 -13t29.5 -5q23 0 38.5 15.5t23.5 32.5l-15 9q-9 -17 -20.5 -28t-25.5 -11q-11 0 -20.5 2.5t-26.5 11.5l-32 18q-10 5 -23.5 10.5t-31.5 5.5q-25 0 -39 -16.5t-21 -31.5z" />
    <glyph glyph-name="exclamdown" unicode="&#xa1;" horiz-adv-x="71" 
d="M26 407h20v80h-20v-80zM46 -222l-3 553h-14l-3 -553h20z" />
    <glyph glyph-name="cent" unicode="&#xa2;" horiz-adv-x="182" 
d="M105 609q10 -2 15.5 -9t8.5 -17t4 -21.5t1 -21.5h20q0 14 -2 29t-7.5 27.5t-15 21t-24.5 8.5v66h-17v-68q-15 -6 -26 -23t-19 -49t-12 -81.5t-4 -120.5q0 -85 4.5 -138t12.5 -84t19 -43t25 -14v-71h17v71q20 3 35 26.5t15 82.5h-20q0 -49 -7.5 -67.5t-22.5 -24.5v521z
M88 89q-10 4 -17.5 18t-13 43.5t-8 78t-2.5 121.5q0 122 12 182.5t29 71.5v-515z" />
    <glyph glyph-name="sterling" unicode="&#xa3;" horiz-adv-x="201" 
d="M88 362q-3 18 -8 45t-9.5 56t-7.5 57.5t-3 49.5q0 55 10.5 85.5t27.5 30.5q14 0 23 -18.5t14 -71.5h19q-5 56 -17.5 81.5t-38.5 25.5q-15 0 -26 -10.5t-18 -28t-10.5 -40t-3.5 -46.5q0 -65 10.5 -119t16.5 -97h-33v-17h36q5 -29 8.5 -62.5t3.5 -68.5q0 -50 -5.5 -85.5
t-14.5 -59.5t-20.5 -37t-22.5 -17l5 -15q11 2 24 3.5t23 1.5q14 0 33.5 -4t33.5 -4t25 5t19 19l-12 8q-10 -15 -29 -15q-22 0 -34 4t-31 4q-16 0 -27 -4l-2 3q23 20 39 68.5t16 128.5q0 33 -3 65.5t-8 61.5h59v17h-62z" />
    <glyph glyph-name="currency" unicode="&#xa4;" horiz-adv-x="206" 
d="M12 291h37q1 -77 5 -129.5t11 -87.5q10 -48 26 -68t40 -20q19 0 31.5 16t20.5 41t11.5 55t3.5 58h-22q0 -24 -2.5 -51t-7.5 -49.5t-14 -37t-22 -14.5q-10 0 -20 9.5t-18 40t-14 87t-7 150.5h135v16h-136v47v33q0 17 1 32h135v16h-135q2 84 8 136.5t14.5 82.5t18 40.5
t18.5 10.5q40 0 40 -136h22q0 154 -61 154q-25 0 -39.5 -23t-24.5 -68q-15 -73 -18 -197h-37v-16h37q-1 -15 -1 -31v-33v-48h-36v-16z" />
    <glyph glyph-name="currency" unicode="&#x20ac;" horiz-adv-x="206" 
d="M12 291h37q1 -77 5 -129.5t11 -87.5q10 -48 26 -68t40 -20q19 0 31.5 16t20.5 41t11.5 55t3.5 58h-22q0 -24 -2.5 -51t-7.5 -49.5t-14 -37t-22 -14.5q-10 0 -20 9.5t-18 40t-14 87t-7 150.5h135v16h-136v47v33q0 17 1 32h135v16h-135q2 84 8 136.5t14.5 82.5t18 40.5
t18.5 10.5q40 0 40 -136h22q0 154 -61 154q-25 0 -39.5 -23t-24.5 -68q-15 -73 -18 -197h-37v-16h37q-1 -15 -1 -31v-33v-48h-36v-16z" />
    <glyph glyph-name="yen" unicode="&#xa5;" horiz-adv-x="164" 
d="M93 267h47v16h-47v21l63 388h-20l-27 -173q-7 -45 -13 -89.5t-11 -93.5h-2q-6 48 -12.5 93t-14.5 90l-28 173h-20l65 -388v-21h-51v-16h51v-100h-51v-16h51v-151h20v151h47v16h-47v100z" />
    <glyph glyph-name="brokenbar" unicode="&#xa6;" horiz-adv-x="67" 
d="M23 325h20v350h-20v-350zM23 -175h20v350h-20v-350z" />
    <glyph glyph-name="section" unicode="&#xa7;" horiz-adv-x="196" 
d="M156 616q0 52 -13 79.5t-42 27.5t-46 -36q-8 -17 -11.5 -40.5t-3.5 -45.5q0 -26 5 -54t14 -51q-16 -25 -25.5 -49.5t-9.5 -66.5q0 -21 3 -40t9.5 -39.5t17.5 -43t27 -50.5t26.5 -49t17.5 -39q10 -25 13.5 -48t3.5 -54q0 -17 -3 -43t-12 -47q-5 -13 -13.5 -21.5
t-19.5 -8.5q-9 0 -17 4.5t-13.5 15.5t-8 31t-2.5 52h-20q0 -20 1.5 -41t7.5 -38.5t18.5 -29t34.5 -11.5q33 0 51 41q16 37 16 98q0 58 -19 104q14 24 21.5 55.5t7.5 64.5q0 26 -3.5 47.5t-11 42t-18 41.5t-23.5 45q-26 47 -38 79q-11 29 -14.5 51.5t-3.5 50.5q0 50 11 78
t30 28q12 0 19 -8t10.5 -20.5t4.5 -29t1 -32.5h20zM44 384q0 26 4 47.5t18 48.5q13 -33 28.5 -59.5t28 -53t21 -56t8.5 -67.5q0 -32 -3 -54.5t-13 -49.5q-15 32 -31 60t-29.5 56.5t-22.5 59t-9 67.5v1z" />
    <glyph glyph-name="dieresis" unicode="&#xa8;" 
d="M20 658v-72h18v72h-18zM74 658v-72h18v72h-18z" />
    <glyph glyph-name="copyright" unicode="&#xa9;" horiz-adv-x="428" 
d="M290 631q-12 12 -28 18q-18 7 -41 7t-41 -8t-35 -23q-32 -30 -32 -83q0 -26 8.5 -47t22.5 -35q31 -31 77 -31q14 0 26.5 3t22.5 8q18 9 26 20l-12 12q-5 -5 -12.5 -10t-15.5 -9q-16 -7 -34 -7q-36 0 -63 27q-14 14 -20 32t-6 37q0 26 8.5 42.5t16.5 25.5q14 15 30.5 22
t33.5 7q21 0 35 -7q6 -3 11 -6t10 -8zM215 706q34 0 63.5 -13t51.5 -35.5t35 -52t13 -63.5t-13 -63.5t-35 -52t-51.5 -35.5t-63.5 -13t-63.5 13t-51.5 35.5t-35 52t-13 63.5t13 63.5t35 52t51.5 35.5t62.5 13h1zM214 723q-38 0 -70.5 -14t-57.5 -39t-39 -58t-14 -70
q0 -38 14 -70.5t39 -57.5t57.5 -39t70.5 -14q37 0 70 14t58 39t39 57.5t14 70.5q0 37 -14 70t-38.5 58t-57.5 39t-70 14h-1z" />
    <glyph glyph-name="ordfeminine" unicode="&#xaa;" horiz-adv-x="118" 
d="M94 626q0 37 -6.5 58t-27.5 21q-23 0 -30 -24.5t-7 -58.5h18q0 30 4.5 48t13.5 18q11 0 14 -18.5t3 -71.5v-11q-38 -20 -47.5 -53.5t-9.5 -75.5q0 -49 11 -65t23 -16q11 0 16.5 6t8.5 15h1q0 -8 3 -14h16v3q-2 2 -3 11t-1 31v197zM76 428q0 -12 -6.5 -23t-12.5 -11
q-8 0 -14 13t-6 51q0 34 7 65t32 46v-141z" />
    <glyph glyph-name="guillemotleft" unicode="&#xab;" horiz-adv-x="151" 
d="M31 248v2l55 152v35l-77 -187v-2l77 -187v35zM86 248v2l55 152v35l-77 -187v-2l77 -187v35z" />
    <glyph glyph-name="logicalnot" unicode="&#xac;" horiz-adv-x="317" 
d="M286 325h-254v-16h236v-150h18v166z" />
    <glyph glyph-name="registered" unicode="&#xae;" horiz-adv-x="428" 
d="M148 430h20v100h43l81 -100h25l-83 102q8 1 18.5 5t19.5 11.5t15.5 18.5t6.5 27q0 21 -8.5 33.5t-22.5 19.5q-13 6 -29 8t-35 2h-51v-227zM168 640h31q15 0 28.5 -1.5t24 -6t16.5 -13.5t6 -24q0 -21 -16 -34.5t-42 -13.5h-48v93zM214 723q-38 0 -70.5 -14t-57.5 -39
t-39 -58t-14 -70q0 -38 14 -70.5t39 -57.5t57.5 -39t70.5 -14q37 0 70 14t58 39t39 57.5t14 70.5q0 37 -14 70t-38.5 58t-57.5 39t-70 14h-1zM215 706q34 0 63.5 -13t51.5 -35.5t35 -52t13 -63.5t-13 -63.5t-35 -52t-51.5 -35.5t-63.5 -13t-63.5 13t-51.5 35.5t-35 52
t-13 63.5t13 63.5t35 52t51.5 35.5t62.5 13h1z" />
    <glyph glyph-name="macron" unicode="&#xaf;" 
d="M11 630v-17h90v17h-90z" />
    <glyph glyph-name="degree" unicode="&#xb0;" horiz-adv-x="198" 
d="M99 692q-30 0 -51.5 -21.5t-21.5 -52.5t21.5 -52.5t51.5 -21.5t51.5 21.5t21.5 52.5t-21.5 52.5t-50.5 21.5h-1zM100 674q24 0 39.5 -17.5t15.5 -38.5q0 -25 -16.5 -40.5t-38.5 -15.5q-24 0 -39.5 17.5t-15.5 38.5q0 25 16.5 40.5t37.5 15.5h1z" />
    <glyph glyph-name="plusminus" unicode="&#xb1;" horiz-adv-x="317" 
d="M168 245h118v16h-118v185h-18v-185h-118v-16h118v-181h18v181zM32 0h254v16h-254v-16z" />
    <glyph glyph-name="twosuperior" unicode="&#xb2;" horiz-adv-x="145" 
d="M125 283v18h-89q5 46 19.5 82.5t29.5 71.5t27 71.5t12 83.5q0 40 -12 67.5t-38 27.5q-17 0 -32.5 -17t-18.5 -60h18q3 32 11 46t22 14q17 0 24.5 -24t7.5 -57q0 -43 -12 -78t-27.5 -70.5t-29.5 -75.5t-17 -94l4 -6h101z" />
    <glyph glyph-name="threesuperior" unicode="&#xb3;" horiz-adv-x="140" 
d="M50 498q22 -2 37 -26.5t15 -80.5q0 -48 -9.5 -74t-26.5 -26q-4 0 -8.5 2t-9 8.5t-7.5 18t-3 29.5h-18q0 -43 15 -59t32 -16q26 0 39.5 31.5t13.5 88.5q0 31 -5 51t-12 33t-16 19t-16 8v2q23 12 33 36.5t10 68.5q0 28 -4 46t-10.5 28.5t-15 14.5t-17.5 4q-22 0 -32.5 -20
t-10.5 -50h18q0 18 5 35.5t20 17.5q17 0 23 -23t6 -53q0 -47 -11.5 -69.5t-34.5 -32.5v-12z" />
    <glyph glyph-name="acute" unicode="&#xb4;" 
d="M88 658h-27l-38 -70h14z" />
    <glyph glyph-name="mu" unicode="&#xb5;" horiz-adv-x="190" 
d="M51 532h-20v-780h20v251h2q6 -8 10 -10q8 -5 19 -5t20 7t16 18t12 23t8 20h3l-2 -56h20v532h-20v-440q-16 -46 -30 -68q-13 -19 -26 -19q-10 0 -14.5 4.5t-8.5 12.5q-7 15 -8 42t-1 59v409z" />
    <glyph glyph-name="paragraph" unicode="&#xb6;" horiz-adv-x="255" 
d="M155 -132h18v824h34v-824h18v841h-50q-36 0 -63 -15.5t-45 -41.5t-27 -61.5t-9 -76.5q0 -39 8 -73.5t24 -60.5t39 -42t53 -19v-451z" />
    <glyph glyph-name="periodcentered" unicode="&#xb7;" horiz-adv-x="60" 
d="M30 271q-8 0 -13 -5t-5 -13t5 -13t13 -5t13 5t5 13t-5 13t-12 5h-1z" />
    <glyph glyph-name="periodcentered" unicode="&#x2219;" horiz-adv-x="60" 
d="M30 271q-8 0 -13 -5t-5 -13t5 -13t13 -5t13 5t5 13t-5 13t-12 5h-1z" />
    <glyph glyph-name="cedilla" unicode="&#xb8;" 
d="M53 0l-20 -51l8 -7q16 5 23.5 -3.5t7.5 -19.5q0 -10 -6 -17.5t-17 -7.5q-8 0 -13 2.5t-10 7.5l-5 -16q7 -5 14 -8t17 -3q18 0 28 12t10 30q0 21 -11.5 30t-23.5 9l16 42h-18z" />
    <glyph glyph-name="onesuperior" unicode="&#xb9;" horiz-adv-x="118" 
d="M27 665l8 -15l38 22v-389h18v417h-4z" />
    <glyph glyph-name="ordmasculine" unicode="&#xba;" horiz-adv-x="133" 
d="M23 541q0 -21 0.5 -49t4.5 -53.5t13 -43.5t26 -18t26 18t13 43.5t4.5 53.5t0.5 49t-0.5 49t-4.5 53.5t-13 43.5t-26 18t-26 -18t-13 -43.5t-4.5 -53.5t-0.5 -48v-1zM67 689q9 0 14.5 -16t8 -39t3 -48.5t0.5 -43.5t-0.5 -43.5t-3 -48.5t-8 -39t-14.5 -16t-14.5 16t-8 39
t-3 48.5t-0.5 43.5t0.5 43.5t3 48.5t7.5 39t14 16h1z" />
    <glyph glyph-name="guillemotright" unicode="&#xbb;" horiz-adv-x="151" 
d="M86 250l-77 187v-35l55 -152v-2l-55 -152v-35l77 187v2zM141 250l-77 187v-35l55 -152v-2l-55 -152v-35l77 187v2z" />
    <glyph glyph-name="onequarter" unicode="&#xbc;" horiz-adv-x="309" 
d="M256 705h-18l-199 -717h19zM28 665l8 -15l38 22v-389h18v417h-4zM164 127v-16h76v-111h18v111h22v16h-22v290h-23zM179 127l31 125q10 38 17 70.5t15 70.5h2q-3 -42 -3.5 -76t-0.5 -66v-124h-61z" />
    <glyph glyph-name="onehalf" unicode="&#xbd;" horiz-adv-x="319" 
d="M254 705h-18l-199 -717h19zM24 665l8 -15l38 22v-389h18v417h-4zM294 0v18h-89q5 46 19.5 82.5t29.5 71.5t27 71.5t12 83.5q0 40 -12 67.5t-38 27.5q-17 0 -32.5 -17t-18.5 -60h18q3 32 11 46t22 14q17 0 24.5 -24t7.5 -57q0 -43 -12 -78t-27.5 -70.5t-29.5 -75.5
t-17 -94l4 -6h101z" />
    <glyph glyph-name="threequarters" unicode="&#xbe;" horiz-adv-x="342" 
d="M60 498q22 -2 37 -26.5t15 -80.5q0 -48 -9.5 -74t-26.5 -26q-4 0 -8.5 2t-9 8.5t-7.5 18t-3 29.5h-18q0 -43 15 -59t32 -16q26 0 39.5 31.5t13.5 88.5q0 31 -5 51t-12 33t-16 19t-16 8v2q23 12 33 36.5t10 68.5q0 28 -4 46t-10.5 28.5t-15 14.5t-17.5 4q-22 0 -32.5 -20
t-10.5 -50h18q0 18 5 35.5t20 17.5q17 0 23 -23t6 -53q0 -47 -11.5 -69.5t-34.5 -32.5v-12zM287 705h-18l-199 -717h19zM195 127v-16h76v-111h18v111h22v16h-22v290h-23zM210 127l31 125q10 38 17 70.5t15 70.5h2q-3 -42 -3.5 -76t-0.5 -66v-124h-61z" />
    <glyph glyph-name="questiondown" unicode="&#xbf;" horiz-adv-x="149" 
d="M84 407v80h-20v-80h20zM68 331q3 -75 -6 -136t-22 -110q-14 -52 -22.5 -94t-8.5 -92q0 -19 2 -41.5t9 -41.5t19.5 -31.5t32.5 -12.5q12 0 24 7.5t21.5 25t16 46.5t6.5 73h-19q0 -59 -13.5 -97t-37.5 -38q-16 0 -28.5 24.5t-12.5 81.5q0 24 1.5 44.5t5 41.5t9 43.5
t12.5 51.5q17 72 22 135t3 120h-14z" />
    <glyph glyph-name="Agrave" unicode="&#xc0;" horiz-adv-x="179" 
d="M126 247l21 -247h23l-66 709h-29l-66 -709h22l22 247h73zM124 266h-69l18 204q5 53 8.5 105.5t6.5 109.5h3q3 -57 6.5 -107t8.5 -104zM32 808l66 -75h12l-46 75h-32z" />
    <glyph glyph-name="Aacute" unicode="&#xc1;" horiz-adv-x="179" 
d="M126 247l21 -247h23l-66 709h-29l-66 -709h22l22 247h73zM124 266h-69l18 204q5 53 8.5 105.5t6.5 109.5h3q3 -57 6.5 -107t8.5 -104zM148 808h-32l-46 -75h12z" />
    <glyph glyph-name="Acircumflex" unicode="&#xc2;" horiz-adv-x="179" 
d="M126 247l21 -247h23l-66 709h-29l-66 -709h22l22 247h73zM124 266h-69l18 204q5 53 8.5 105.5t6.5 109.5h3q3 -57 6.5 -107t8.5 -104zM91 774l38 -37h12l-50 68h-2l-50 -68h12l38 37h2z" />
    <glyph glyph-name="Atilde" unicode="&#xc3;" horiz-adv-x="179" 
d="M126 247l21 -247h23l-66 709h-29l-66 -709h22l22 247h73zM124 266h-69l18 204q5 53 8.5 105.5t6.5 109.5h3q3 -57 6.5 -107t8.5 -104zM127 791q-5 -21 -13 -21q-5 0 -7.5 1.5t-5.5 3.5l-11 8q-7 5 -13 7t-10 2q-12 0 -19.5 -10.5t-9.5 -24.5l15 -6q5 21 13 21
q5 0 7.5 -1.5t5.5 -3.5l11 -8q7 -5 13.5 -7t10.5 -2q12 0 19 10.5t9 24.5z" />
    <glyph glyph-name="Adieresis" unicode="&#xc4;" horiz-adv-x="179" 
d="M126 247l21 -247h23l-66 709h-29l-66 -709h22l22 247h73zM124 266h-69l18 204q5 53 8.5 105.5t6.5 109.5h3q3 -57 6.5 -107t8.5 -104zM49 803v-66h18v66h-18zM113 803v-66h18v66h-18z" />
    <glyph glyph-name="Aring" unicode="&#xc5;" horiz-adv-x="179" 
d="M126 247l21 -247h23l-66 709h-29l-66 -709h22l22 247h73zM124 266h-69l18 204q5 53 8.5 105.5t6.5 109.5h3q3 -57 6.5 -107t8.5 -104zM90 733q17 0 28 11t11 28t-11 28t-28 11t-28 -11t-11 -28t11 -28t27 -11h1zM89 749q-10 0 -16.5 6.5t-6.5 16.5t6.5 16.5t16.5 6.5
t16.5 -6.5t6.5 -16.5t-6.5 -16.5t-15.5 -6.5h-1z" />
    <glyph glyph-name="AE" unicode="&#xc6;" horiz-adv-x="301" 
d="M158 247v-247h122v19h-100v347h80v19h-80v305h95v19h-133l-121 -709h22l42 247h73zM158 266h-70l35 212q9 54 17.5 107t15.5 110h4q-2 -57 -2 -110v-107v-212z" />
    <glyph glyph-name="Ccedilla" unicode="&#xc7;" horiz-adv-x="206" 
d="M156 156q0 -24 -2.5 -51t-7.5 -49.5t-14 -37t-22 -14.5q-11 0 -21.5 11.5t-19 48t-14 105.5t-5.5 185q0 110 5.5 178.5t14.5 107t19.5 52t20.5 13.5q40 0 40 -136h22q0 154 -61 154q-25 0 -39.5 -23t-24.5 -68q-11 -48 -15 -118t-4 -159q0 -104 4.5 -171.5t12.5 -109.5
t21.5 -62t33.5 -25l-15 -43l8 -8q18 5 26 -4t8 -21q0 -28 -28 -28q-8 0 -15 3t-13 8l-5 -16q4 -4 13.5 -8t20.5 -4q24 0 34.5 14t10.5 31q0 14 -9 27.5t-30 13.5l11 34q17 3 28.5 20t19 41t10.5 53t3 56h-22z" />
    <glyph glyph-name="Egrave" unicode="&#xc8;" horiz-adv-x="186" 
d="M51 385v305h101v19h-123v-709h128v19h-106v347h86v19h-86zM32 808l66 -75h12l-46 75h-32z" />
    <glyph glyph-name="Eacute" unicode="&#xc9;" horiz-adv-x="186" 
d="M51 385v305h101v19h-123v-709h128v19h-106v347h86v19h-86zM148 808h-32l-46 -75h12z" />
    <glyph glyph-name="Ecircumflex" unicode="&#xca;" horiz-adv-x="186" 
d="M51 385v305h101v19h-123v-709h128v19h-106v347h86v19h-86zM91 774l38 -37h12l-50 68h-2l-50 -68h12l38 37h2z" />
    <glyph glyph-name="Edieresis" unicode="&#xcb;" horiz-adv-x="186" 
d="M51 385v305h101v19h-123v-709h128v19h-106v347h86v19h-86zM49 803v-66h18v66h-18zM113 803v-66h18v66h-18z" />
    <glyph glyph-name="Igrave" unicode="&#xcc;" horiz-adv-x="75" 
d="M68 0v709h-22v-709h22zM-1 808l66 -75h12l-46 75h-32z" />
    <glyph glyph-name="Iacute" unicode="&#xcd;" horiz-adv-x="75" 
d="M30 0v709h-22v-709h22zM77 808h-32l-46 -75h12z" />
    <glyph glyph-name="Icircumflex" unicode="&#xce;" horiz-adv-x="75" 
d="M49 0v709h-22v-709h22zM39 774l38 -37h12l-50 68h-2l-50 -68h12l38 37h2z" />
    <glyph glyph-name="Idieresis" unicode="&#xcf;" horiz-adv-x="75" 
d="M49 0v709h-22v-709h22zM-3 803v-66h18v66h-18zM61 803v-66h18v66h-18z" />
    <glyph glyph-name="Eth" unicode="&#xd0;" horiz-adv-x="199" 
d="M45 709v-331h-28v-17h28v-361h25q28 0 49 17t35 57.5t21 109t7 171.5q0 113 -8.5 182.5t-23.5 107.5t-35.5 51t-44.5 13h-25zM72 690q19 0 35.5 -14t28 -51t18 -102t6.5 -167q0 -99 -6 -164t-17 -103.5t-27.5 -54t-37.5 -15.5h-5v342h56v17h-56v312h5z" />
    <glyph glyph-name="Ntilde" unicode="&#xd1;" horiz-adv-x="221" 
d="M170 24q-5 45 -15 112.5t-23.5 154.5t-31 192t-36.5 226h-30v-709h22q0 249 -0.5 422.5t-3.5 262.5h2q8 -88 36 -260t69 -425h28v709h-22v-226t1 -192t2 -154.5t4 -112.5h-2zM148 791q-5 -21 -13 -21q-5 0 -7.5 1.5t-5.5 3.5l-11 8q-7 5 -13 7t-10 2q-12 0 -19.5 -10.5
t-9.5 -24.5l15 -6q5 21 13 21q5 0 7.5 -1.5t5.5 -3.5l11 -8q7 -5 13.5 -7t10.5 -2q12 0 19 10.5t9 24.5z" />
    <glyph glyph-name="Ograve" unicode="&#xd2;" horiz-adv-x="231" 
d="M30 354q0 -107 6 -178t17 -113t26.5 -59.5t35.5 -17.5q19 0 35 17.5t27 59.5t17 113t6 178t-6 178t-17 113.5t-27 60t-35 17.5q-20 0 -35.5 -17.5t-26.5 -59.5t-17 -113t-6 -178v-1zM115 706q13 0 24.5 -16.5t20 -57t13.5 -108t5 -169.5t-5 -169t-13.5 -107.5t-20 -57
t-24.5 -16.5t-24.5 16.5t-20 57t-13.5 107.5t-5 169t5 169.5t13.5 108t19.5 57t24 16.5h1zM56 809l66 -75h12l-46 75h-32z" />
    <glyph glyph-name="Oacute" unicode="&#xd3;" horiz-adv-x="231" 
d="M30 354q0 -107 6 -178t17 -113t26.5 -59.5t35.5 -17.5q19 0 35 17.5t27 59.5t17 113t6 178t-6 178t-17 113.5t-27 60t-35 17.5q-20 0 -35.5 -17.5t-26.5 -59.5t-17 -113t-6 -178v-1zM115 706q13 0 24.5 -16.5t20 -57t13.5 -108t5 -169.5t-5 -169t-13.5 -107.5t-20 -57
t-24.5 -16.5t-24.5 16.5t-20 57t-13.5 107.5t-5 169t5 169.5t13.5 108t19.5 57t24 16.5h1zM172 809h-32l-46 -75h12z" />
    <glyph glyph-name="Ocircumflex" unicode="&#xd4;" horiz-adv-x="231" 
d="M30 354q0 -107 6 -178t17 -113t26.5 -59.5t35.5 -17.5q19 0 35 17.5t27 59.5t17 113t6 178t-6 178t-17 113.5t-27 60t-35 17.5q-20 0 -35.5 -17.5t-26.5 -59.5t-17 -113t-6 -178v-1zM115 706q13 0 24.5 -16.5t20 -57t13.5 -108t5 -169.5t-5 -169t-13.5 -107.5t-20 -57
t-24.5 -16.5t-24.5 16.5t-20 57t-13.5 107.5t-5 169t5 169.5t13.5 108t19.5 57t24 16.5h1zM115 775l38 -37h12l-50 68h-2l-50 -68h12l38 37h2z" />
    <glyph glyph-name="Otilde" unicode="&#xd5;" horiz-adv-x="231" 
d="M30 354q0 -107 6 -178t17 -113t26.5 -59.5t35.5 -17.5q19 0 35 17.5t27 59.5t17 113t6 178t-6 178t-17 113.5t-27 60t-35 17.5q-20 0 -35.5 -17.5t-26.5 -59.5t-17 -113t-6 -178v-1zM115 706q13 0 24.5 -16.5t20 -57t13.5 -108t5 -169.5t-5 -169t-13.5 -107.5t-20 -57
t-24.5 -16.5t-24.5 16.5t-20 57t-13.5 107.5t-5 169t5 169.5t13.5 108t19.5 57t24 16.5h1zM151 792q-5 -21 -13 -21q-5 0 -7.5 1.5t-5.5 3.5l-11 8q-7 5 -13 7t-10 2q-12 0 -19.5 -10.5t-9.5 -24.5l15 -6q5 21 13 21q5 0 7.5 -1.5t5.5 -3.5l11 -8q8 -5 14 -7t10 -2
q12 0 19 10.5t9 24.5z" />
    <glyph glyph-name="Odieresis" unicode="&#xd6;" horiz-adv-x="231" 
d="M30 354q0 -107 6 -178t17 -113t26.5 -59.5t35.5 -17.5q19 0 35 17.5t27 59.5t17 113t6 178t-6 178t-17 113.5t-27 60t-35 17.5q-20 0 -35.5 -17.5t-26.5 -59.5t-17 -113t-6 -178v-1zM115 706q13 0 24.5 -16.5t20 -57t13.5 -108t5 -169.5t-5 -169t-13.5 -107.5t-20 -57
t-24.5 -16.5t-24.5 16.5t-20 57t-13.5 107.5t-5 169t5 169.5t13.5 108t19.5 57t24 16.5h1zM73 804v-66h18v66h-18zM137 804v-66h18v66h-18z" />
    <glyph glyph-name="multiply" unicode="&#xd7;" horiz-adv-x="317" 
d="M159 241l116 -116l11 11l-116 117l116 116l-11 11l-116 -116l-116 116l-11 -11l116 -116l-116 -117l11 -11z" />
    <glyph glyph-name="Oslash" unicode="&#xd8;" horiz-adv-x="231" 
d="M56 55q8 -27 20.5 -48t38.5 -21q19 0 35 17.5t27 60t17 113.5t6 178q0 72 -3.5 142t-13.5 122l25 100l-19 4l-15 -71q-2 12 -7 25t-12.5 23t-17.5 16.5t-23 6.5q-18 0 -33.5 -16.5t-27 -58.5t-17.5 -113t-6 -180q0 -82 4 -150.5t13 -114.5l-25 -100l19 -4zM56 124
q-3 48 -3.5 106t-0.5 125q0 102 5 169t13.5 107.5t19.5 57t24 16.5q14 0 20.5 -5.5t11.5 -13.5q8 -10 13.5 -28t7.5 -35zM174 585q3 -48 3.5 -106t0.5 -124q0 -102 -5 -169.5t-13.5 -108t-20 -57t-24.5 -16.5t-18.5 5.5t-11.5 13.5q-7 10 -13 30.5t-8 34.5z" />
    <glyph glyph-name="Ugrave" unicode="&#xd9;" horiz-adv-x="222" 
d="M189 709h-22v-549q0 -30 -1 -58t-6.5 -50t-17 -35t-32.5 -13q-20 0 -31 13.5t-16 35.5t-6.5 50t-1.5 57v549h-22v-548q0 -41 3 -73t11.5 -55t23.5 -35t39 -12q25 0 41 12.5t24 35.5t11 55.5t3 71.5v548zM53 808l66 -75h12l-46 75h-32z" />
    <glyph glyph-name="Uacute" unicode="&#xda;" horiz-adv-x="222" 
d="M189 709h-22v-549q0 -30 -1 -58t-6.5 -50t-17 -35t-32.5 -13q-20 0 -31 13.5t-16 35.5t-6.5 50t-1.5 57v549h-22v-548q0 -41 3 -73t11.5 -55t23.5 -35t39 -12q25 0 41 12.5t24 35.5t11 55.5t3 71.5v548zM169 808h-32l-46 -75h12z" />
    <glyph glyph-name="Ucircumflex" unicode="&#xdb;" horiz-adv-x="222" 
d="M189 709h-22v-549q0 -30 -1 -58t-6.5 -50t-17 -35t-32.5 -13q-20 0 -31 13.5t-16 35.5t-6.5 50t-1.5 57v549h-22v-548q0 -41 3 -73t11.5 -55t23.5 -35t39 -12q25 0 41 12.5t24 35.5t11 55.5t3 71.5v548zM112 774l38 -37h12l-50 68h-2l-50 -68h12l38 37h2z" />
    <glyph glyph-name="Udieresis" unicode="&#xdc;" horiz-adv-x="222" 
d="M189 709h-22v-549q0 -30 -1 -58t-6.5 -50t-17 -35t-32.5 -13q-20 0 -31 13.5t-16 35.5t-6.5 50t-1.5 57v549h-22v-548q0 -41 3 -73t11.5 -55t23.5 -35t39 -12q25 0 41 12.5t24 35.5t11 55.5t3 71.5v548zM70 803v-66h18v66h-18zM134 803v-66h18v66h-18z" />
    <glyph glyph-name="Yacute" unicode="&#xdd;" horiz-adv-x="164" 
d="M156 709h-20l-27 -184q-7 -46 -13 -92.5t-11 -97.5h-2q-7 51 -13 97t-14 93l-28 184h-20l64 -408v-301h22v301zM140 808h-32l-46 -75h12z" />
    <glyph glyph-name="Thorn" unicode="&#xde;" horiz-adv-x="192" 
d="M51 558v151h-22v-709h22v184h1q25 0 45.5 8t35 28.5t22.5 57t8 93.5q0 99 -24.5 143t-78.5 44h-9zM51 203v336h13q38 0 57.5 -38t19.5 -129q0 -51 -6.5 -84t-18 -52t-26.5 -26t-31 -7h-8z" />
    <glyph glyph-name="germandbls" unicode="&#xdf;" horiz-adv-x="193" 
d="M74 17v-17h4q22 0 38.5 14t27.5 45t16.5 80t5.5 119q0 95 -16.5 144.5t-51.5 63.5v2q25 10 40.5 43t15.5 93q0 23 -3 47t-10.5 43.5t-20 32t-30.5 12.5q-35 0 -49 -43.5t-14 -111.5v-584h20v584q0 64 10.5 101t32.5 37q12 0 20.5 -10.5t13.5 -27.5t7.5 -38.5t2.5 -42.5
q0 -63 -18 -96t-46 -33h-6v-17h10q9 0 21.5 -6t24 -27t19 -60.5t7.5 -105.5q0 -75 -6 -122.5t-15.5 -73.5t-22 -35.5t-24.5 -9.5h-4z" />
    <glyph glyph-name="agrave" unicode="&#xe0;" horiz-adv-x="174" 
d="M149 0v3q-7 11 -7 74v264q0 63 -2.5 102.5t-8.5 62t-16.5 30.5t-26.5 8t-26.5 -10.5t-17 -29t-9.5 -43t-3 -51.5h20q0 21 2 41.5t6 37.5t10.5 27.5t16.5 10.5q25 0 30 -42.5t5 -120.5v-18q-33 -15 -52.5 -39t-29 -53.5t-12 -62.5t-2.5 -65q0 -40 4 -66.5t11.5 -42.5
t17 -22.5t20.5 -6.5q21 0 31 15t13 25h1q1 -6 2 -14.5t4 -13.5h19zM122 62q-6 -25 -17 -41t-24 -16q-17 0 -26 28t-9 94q0 27 2 57t9.5 57.5t22.5 50.5t42 36v-266zM52 658l51 -70h14l-38 70h-27z" />
    <glyph glyph-name="aacute" unicode="&#xe1;" horiz-adv-x="174" 
d="M149 0v3q-7 11 -7 74v264q0 63 -2.5 102.5t-8.5 62t-16.5 30.5t-26.5 8t-26.5 -10.5t-17 -29t-9.5 -43t-3 -51.5h20q0 21 2 41.5t6 37.5t10.5 27.5t16.5 10.5q25 0 30 -42.5t5 -120.5v-18q-33 -15 -52.5 -39t-29 -53.5t-12 -62.5t-2.5 -65q0 -40 4 -66.5t11.5 -42.5
t17 -22.5t20.5 -6.5q21 0 31 15t13 25h1q1 -6 2 -14.5t4 -13.5h19zM122 62q-6 -25 -17 -41t-24 -16q-17 0 -26 28t-9 94q0 27 2 57t9.5 57.5t22.5 50.5t42 36v-266zM117 658h-27l-38 -70h14z" />
    <glyph glyph-name="acircumflex" unicode="&#xe2;" horiz-adv-x="174" 
d="M149 0v3q-7 11 -7 74v264q0 63 -2.5 102.5t-8.5 62t-16.5 30.5t-26.5 8t-26.5 -10.5t-17 -29t-9.5 -43t-3 -51.5h20q0 21 2 41.5t6 37.5t10.5 27.5t16.5 10.5q25 0 30 -42.5t5 -120.5v-18q-33 -15 -52.5 -39t-29 -53.5t-12 -62.5t-2.5 -65q0 -40 4 -66.5t11.5 -42.5
t17 -22.5t20.5 -6.5q21 0 31 15t13 25h1q1 -6 2 -14.5t4 -13.5h19zM122 62q-6 -25 -17 -41t-24 -16q-17 0 -26 28t-9 94q0 27 2 57t9.5 57.5t22.5 50.5t42 36v-266zM86 625l21 -37h15l-37 74h-2l-36 -74h16l21 37h2z" />
    <glyph glyph-name="atilde" unicode="&#xe3;" horiz-adv-x="174" 
d="M149 0v3q-7 11 -7 74v264q0 63 -2.5 102.5t-8.5 62t-16.5 30.5t-26.5 8t-26.5 -10.5t-17 -29t-9.5 -43t-3 -51.5h20q0 21 2 41.5t6 37.5t10.5 27.5t16.5 10.5q25 0 30 -42.5t5 -120.5v-18q-33 -15 -52.5 -39t-29 -53.5t-12 -62.5t-2.5 -65q0 -40 4 -66.5t11.5 -42.5
t17 -22.5t20.5 -6.5q21 0 31 15t13 25h1q1 -6 2 -14.5t4 -13.5h19zM122 62q-6 -25 -17 -41t-24 -16q-17 0 -26 28t-9 94q0 27 2 57t9.5 57.5t22.5 50.5t42 36v-266zM52 603q3 19 11 19q5 0 6.5 -1.5t5.5 -3.5l10 -7q6 -5 12 -6.5t10 -1.5q11 0 17 9.5t8 21.5l-15 6
q-3 -19 -11 -19q-5 0 -6.5 1.5t-5.5 3.5l-10 7q-11 8 -21 8q-11 0 -17.5 -9.5t-8.5 -21.5z" />
    <glyph glyph-name="adieresis" unicode="&#xe4;" horiz-adv-x="174" 
d="M149 0v3q-7 11 -7 74v264q0 63 -2.5 102.5t-8.5 62t-16.5 30.5t-26.5 8t-26.5 -10.5t-17 -29t-9.5 -43t-3 -51.5h20q0 21 2 41.5t6 37.5t10.5 27.5t16.5 10.5q25 0 30 -42.5t5 -120.5v-18q-33 -15 -52.5 -39t-29 -53.5t-12 -62.5t-2.5 -65q0 -40 4 -66.5t11.5 -42.5
t17 -22.5t20.5 -6.5q21 0 31 15t13 25h1q1 -6 2 -14.5t4 -13.5h19zM122 62q-6 -25 -17 -41t-24 -16q-17 0 -26 28t-9 94q0 27 2 57t9.5 57.5t22.5 50.5t42 36v-266zM49 658v-72h18v72h-18zM103 658v-72h18v72h-18z" />
    <glyph glyph-name="aring" unicode="&#xe5;" horiz-adv-x="174" 
d="M149 0v3q-7 11 -7 74v264q0 63 -2.5 102.5t-8.5 62t-16.5 30.5t-26.5 8t-26.5 -10.5t-17 -29t-9.5 -43t-3 -51.5h20q0 21 2 41.5t6 37.5t10.5 27.5t16.5 10.5q25 0 30 -42.5t5 -120.5v-18q-33 -15 -52.5 -39t-29 -53.5t-12 -62.5t-2.5 -65q0 -40 4 -66.5t11.5 -42.5
t17 -22.5t20.5 -6.5q21 0 31 15t13 25h1q1 -6 2 -14.5t4 -13.5h19zM122 62q-6 -25 -17 -41t-24 -16q-17 0 -26 28t-9 94q0 27 2 57t9.5 57.5t22.5 50.5t42 36v-266zM85 586q15 0 26 11t11 26t-11.5 26t-26.5 11t-26 -11t-11 -26t11.5 -26t25.5 -11h1zM84 602q-10 0 -16 6
t-6 15t6.5 15t15.5 6t15 -6t6 -15t-6.5 -15t-14.5 -6z" />
    <glyph glyph-name="ae" unicode="&#xe6;" horiz-adv-x="287" 
d="M255 269q0 81 -6.5 140t-18.5 94q-14 41 -38 41q-7 0 -15 -3.5t-15.5 -15.5t-13 -34t-7.5 -59h-2q0 49 -9 80.5t-37 31.5q-16 0 -26.5 -10.5t-17 -29t-9.5 -43t-3 -51.5h20q0 21 2 41.5t6 37.5t10.5 27.5t16.5 10.5t17 -7t11 -25.5t5.5 -50t1.5 -80.5v-18
q-33 -15 -52.5 -39t-29 -53.5t-12 -62.5t-2.5 -65q0 -40 4 -66.5t11.5 -42.5t17 -22.5t20.5 -6.5q6 0 14 2t15.5 9t15 20t13.5 35h2q5 -28 18.5 -47t33.5 -19q30 0 44 32q8 17 11.5 41t5.5 51h-20q-3 -57 -12.5 -82t-26.5 -25q-10 0 -19.5 9t-16.5 37t-11 80t-4 138h108z
M147 287q0 84 5.5 132t13 72t15 30t11.5 6q7 0 14.5 -13t14 -42t10.5 -74.5t4 -110.5h-88zM127 272q0 -57 2.5 -102t5.5 -76q-2 -13 -6.5 -28.5t-10.5 -29t-13.5 -22.5t-17.5 -9q-18 0 -27 28t-9 94q0 27 2 57t9.5 57.5t22.5 50.5t42 36v-56z" />
    <glyph glyph-name="ccedilla" unicode="&#xe7;" horiz-adv-x="175" 
d="M130 98q0 -51 -9.5 -72t-23.5 -21q-12 0 -21 9.5t-16 38t-10.5 80t-3.5 135.5q0 136 15 197.5t38 61.5q18 0 24 -21t6 -48h20q0 35 -11.5 60.5t-36.5 25.5q-18 0 -32 -14t-23.5 -46t-14.5 -85t-5 -131q0 -81 4 -133.5t11.5 -84t18.5 -45t26 -16.5l-15 -40l7 -7
q16 5 23.5 -3.5t7.5 -19.5q0 -10 -5.5 -17.5t-16.5 -7.5q-8 0 -13 2.5t-10 7.5l-5 -16q6 -5 13 -8t17 -3q18 0 28 12t10 30q0 21 -11 30t-23 9l11 31q19 4 32.5 29.5t13.5 79.5h-20z" />
    <glyph glyph-name="egrave" unicode="&#xe8;" horiz-adv-x="183" 
d="M155 269q0 81 -6.5 140t-18.5 94q-14 41 -38 41q-11 0 -22.5 -10.5t-20.5 -36.5q-12 -31 -17 -87.5t-5 -137.5q0 -91 5 -147t15 -87q9 -29 21.5 -39.5t27.5 -10.5q29 0 44 32q7 17 11 41t6 51h-20q-3 -57 -12.5 -82t-26.5 -25q-12 0 -21 11t-16 40.5t-10.5 81t-3.5 131.5
h108zM47 287q0 84 5.5 132t13 72t15 30t11.5 6q7 0 14.5 -13t14 -42t10.5 -74.5t4 -110.5h-88zM56 658l51 -70h14l-38 70h-27z" />
    <glyph glyph-name="eacute" unicode="&#xe9;" horiz-adv-x="183" 
d="M155 269q0 81 -6.5 140t-18.5 94q-14 41 -38 41q-11 0 -22.5 -10.5t-20.5 -36.5q-12 -31 -17 -87.5t-5 -137.5q0 -91 5 -147t15 -87q9 -29 21.5 -39.5t27.5 -10.5q29 0 44 32q7 17 11 41t6 51h-20q-3 -57 -12.5 -82t-26.5 -25q-12 0 -21 11t-16 40.5t-10.5 81t-3.5 131.5
h108zM47 287q0 84 5.5 132t13 72t15 30t11.5 6q7 0 14.5 -13t14 -42t10.5 -74.5t4 -110.5h-88zM121 658h-27l-38 -70h14z" />
    <glyph glyph-name="ecircumflex" unicode="&#xea;" horiz-adv-x="183" 
d="M155 269q0 81 -6.5 140t-18.5 94q-14 41 -38 41q-11 0 -22.5 -10.5t-20.5 -36.5q-12 -31 -17 -87.5t-5 -137.5q0 -91 5 -147t15 -87q9 -29 21.5 -39.5t27.5 -10.5q29 0 44 32q7 17 11 41t6 51h-20q-3 -57 -12.5 -82t-26.5 -25q-12 0 -21 11t-16 40.5t-10.5 81t-3.5 131.5
h108zM47 287q0 84 5.5 132t13 72t15 30t11.5 6q7 0 14.5 -13t14 -42t10.5 -74.5t4 -110.5h-88zM90 625l21 -37h15l-37 74h-2l-36 -74h16l21 37h2z" />
    <glyph glyph-name="edieresis" unicode="&#xeb;" horiz-adv-x="183" 
d="M155 269q0 81 -6.5 140t-18.5 94q-14 41 -38 41q-11 0 -22.5 -10.5t-20.5 -36.5q-12 -31 -17 -87.5t-5 -137.5q0 -91 5 -147t15 -87q9 -29 21.5 -39.5t27.5 -10.5q29 0 44 32q7 17 11 41t6 51h-20q-3 -57 -12.5 -82t-26.5 -25q-12 0 -21 11t-16 40.5t-10.5 81t-3.5 131.5
h108zM47 287q0 84 5.5 132t13 72t15 30t11.5 6q7 0 14.5 -13t14 -42t10.5 -74.5t4 -110.5h-88zM53 658v-72h18v72h-18zM107 658v-72h18v72h-18z" />
    <glyph glyph-name="igrave" unicode="&#xec;" horiz-adv-x="71" 
d="M44 532h-20v-532h20v532zM3 658l51 -70h14l-38 70h-27z" />
    <glyph glyph-name="iacute" unicode="&#xed;" horiz-adv-x="71" 
d="M44 532h-20v-532h20v532zM68 658h-27l-38 -70h14z" />
    <glyph glyph-name="icircumflex" unicode="&#xee;" horiz-adv-x="71" 
d="M44 532h-20v-532h20v532zM37 625l21 -37h15l-36 74h-2l-36 -74h15l21 37h2z" />
    <glyph glyph-name="idieresis" unicode="&#xef;" horiz-adv-x="71" 
d="M44 532h-20v-532h20v532zM0 658v-72h18v72h-18zM54 658v-72h18v72h-18z" />
    <glyph glyph-name="eth" unicode="&#xf0;" horiz-adv-x="193" 
d="M159 655l-7 14l-42 -23q-13 29 -26.5 51.5t-26.5 41.5l-14 -9q15 -22 28 -44t24 -48l-54 -29l7 -15l53 29q5 -12 8.5 -24t8.5 -25q3 -12 6.5 -25.5t7.5 -30.5h-2q-5 11 -12.5 18.5t-19.5 7.5q-13 0 -25.5 -9.5t-22.5 -39.5t-16 -84.5t-6 -144.5q0 -86 5 -140.5t14 -85
t22 -41.5t29 -11q11 0 22 7t20 27q13 28 19.5 86.5t6.5 159.5q0 71 -4 126t-10 99q-15 87 -35 139zM97 5q-8 0 -17 9.5t-16 37.5t-11.5 79.5t-4.5 134.5t4.5 134.5t11.5 79.5t16 37.5t17 9.5t17 -9.5t16 -37.5t11.5 -79.5t4.5 -134.5q0 -78 -4 -128.5t-10.5 -80t-15.5 -41
t-18 -11.5h-1z" />
    <glyph glyph-name="ntilde" unicode="&#xf1;" horiz-adv-x="190" 
d="M159 0v425q0 39 -3.5 61t-10.5 36q-8 15 -18.5 18.5t-17.5 3.5q-11 0 -20.5 -7t-16.5 -18t-12 -23t-8 -20h-3l2 56h-20v-532h20v440q8 24 15.5 40t14.5 27q14 20 25 20t15.5 -5t8.5 -13q7 -15 8 -40.5t1 -57.5v-411h20zM59 603q3 19 11 19q5 0 6.5 -1.5t5.5 -3.5l10 -7
q6 -5 12 -6.5t10 -1.5q11 0 17 9.5t8 21.5l-15 6q-3 -19 -11 -19q-5 0 -6.5 1.5t-5.5 3.5l-10 7q-11 8 -21 8q-11 0 -17.5 -9.5t-8.5 -21.5z" />
    <glyph glyph-name="ograve" unicode="&#xf2;" horiz-adv-x="193" 
d="M166 266q0 90 -6 144.5t-16 84.5t-22.5 39.5t-24.5 9.5t-24.5 -9.5t-22.5 -39.5t-16 -84.5t-6 -144.5q0 -86 5 -140.5t14 -85t22 -41.5t28 -11q16 0 29 13t22 45t13.5 85t4.5 134v1zM97 4q-8 0 -17 9.5t-16 37.5t-11.5 79.5t-4.5 134.5t4.5 134.5t11.5 79.5t16 37.5
t17 9.5t17 -9.5t16 -37.5t11.5 -79.5t4.5 -134.5q0 -78 -4 -128.5t-10.5 -80t-15.5 -41t-18 -11.5h-1zM60 658l51 -70h14l-38 70h-27z" />
    <glyph glyph-name="oacute" unicode="&#xf3;" horiz-adv-x="193" 
d="M166 266q0 90 -6 144.5t-16 84.5t-22.5 39.5t-24.5 9.5t-24.5 -9.5t-22.5 -39.5t-16 -84.5t-6 -144.5q0 -86 5 -140.5t14 -85t22 -41.5t28 -11q16 0 29 13t22 45t13.5 85t4.5 134v1zM97 4q-8 0 -17 9.5t-16 37.5t-11.5 79.5t-4.5 134.5t4.5 134.5t11.5 79.5t16 37.5
t17 9.5t17 -9.5t16 -37.5t11.5 -79.5t4.5 -134.5q0 -78 -4 -128.5t-10.5 -80t-15.5 -41t-18 -11.5h-1zM125 658h-27l-38 -70h14z" />
    <glyph glyph-name="ocircumflex" unicode="&#xf4;" horiz-adv-x="193" 
d="M166 266q0 90 -6 144.5t-16 84.5t-22.5 39.5t-24.5 9.5t-24.5 -9.5t-22.5 -39.5t-16 -84.5t-6 -144.5q0 -86 5 -140.5t14 -85t22 -41.5t28 -11q16 0 29 13t22 45t13.5 85t4.5 134v1zM97 4q-8 0 -17 9.5t-16 37.5t-11.5 79.5t-4.5 134.5t4.5 134.5t11.5 79.5t16 37.5
t17 9.5t17 -9.5t16 -37.5t11.5 -79.5t4.5 -134.5q0 -78 -4 -128.5t-10.5 -80t-15.5 -41t-18 -11.5h-1zM94 625l21 -37h15l-37 74h-2l-36 -74h16l21 37h2z" />
    <glyph glyph-name="otilde" unicode="&#xf5;" horiz-adv-x="193" 
d="M166 266q0 90 -6 144.5t-16 84.5t-22.5 39.5t-24.5 9.5t-24.5 -9.5t-22.5 -39.5t-16 -84.5t-6 -144.5q0 -86 5 -140.5t14 -85t22 -41.5t28 -11q16 0 29 13t22 45t13.5 85t4.5 134v1zM97 4q-8 0 -17 9.5t-16 37.5t-11.5 79.5t-4.5 134.5t4.5 134.5t11.5 79.5t16 37.5
t17 9.5t17 -9.5t16 -37.5t11.5 -79.5t4.5 -134.5q0 -78 -4 -128.5t-10.5 -80t-15.5 -41t-18 -11.5h-1zM60 603q3 19 11 19q5 0 6.5 -1.5t5.5 -3.5l10 -7q6 -5 12 -6.5t10 -1.5q11 0 17 9.5t8 21.5l-15 6q-3 -19 -11 -19q-5 0 -6.5 1.5t-5.5 3.5l-10 7q-11 8 -21 8
q-11 0 -17.5 -9.5t-8.5 -21.5z" />
    <glyph glyph-name="odieresis" unicode="&#xf6;" horiz-adv-x="193" 
d="M166 266q0 90 -6 144.5t-16 84.5t-22.5 39.5t-24.5 9.5t-24.5 -9.5t-22.5 -39.5t-16 -84.5t-6 -144.5q0 -86 5 -140.5t14 -85t22 -41.5t28 -11q16 0 29 13t22 45t13.5 85t4.5 134v1zM97 4q-8 0 -17 9.5t-16 37.5t-11.5 79.5t-4.5 134.5t4.5 134.5t11.5 79.5t16 37.5
t17 9.5t17 -9.5t16 -37.5t11.5 -79.5t4.5 -134.5q0 -78 -4 -128.5t-10.5 -80t-15.5 -41t-18 -11.5h-1zM57 658v-72h18v72h-18zM111 658v-72h18v72h-18z" />
    <glyph glyph-name="divide" unicode="&#xf7;" horiz-adv-x="317" 
d="M158 412q-8 0 -13 -5t-5 -13t5 -13t13 -5t13 5t5 13t-5 13t-12 5h-1zM32 245h254v16h-254v-16zM159 130q-8 0 -13 -5t-5 -13t5 -13t13 -5t13 5t5 13t-5 13t-12 5h-1z" />
    <glyph glyph-name="oslash" unicode="&#xf8;" horiz-adv-x="193" 
d="M190 538l-16 6l-24 -84q-3 16 -7.5 31t-11 27t-15 19t-18.5 7q-13 0 -25.5 -9.5t-22.5 -39.5t-16 -84.5t-6 -144.5q0 -49 2 -94.5t7 -78.5l-33 -99l16 -6l23 79q5 -32 19 -55.5t35 -23.5q16 0 29 13t22 45t13.5 85.5t4.5 134.5q0 57 -2.5 98.5t-7.5 74.5zM47 124
q-2 31 -0.5 69t1.5 73q0 83 4.5 134.5t11.5 79.5t16 37.5t17 9.5q13 0 24 -16q7 -10 13 -32t8 -45zM147 408q2 -31 0.5 -69.5t-1.5 -72.5q0 -78 -4 -128.5t-11 -80t-15.5 -41t-18.5 -11.5q-15 0 -25 15q-7 10 -12.5 30t-7.5 44z" />
    <glyph glyph-name="ugrave" unicode="&#xf9;" horiz-adv-x="190" 
d="M31 532v-425q0 -39 3.5 -61t10.5 -36q8 -15 18.5 -18.5t17.5 -3.5q11 0 20.5 7t16.5 18t12 23t8 20h3l-2 -56h20v532h-20v-440q-16 -46 -30 -68q-13 -19 -26 -19q-10 0 -14.5 4.5t-8.5 12.5q-7 15 -8 42t-1 59v409h-20zM59 658l51 -70h14l-38 70h-27z" />
    <glyph glyph-name="uacute" unicode="&#xfa;" horiz-adv-x="190" 
d="M31 532v-425q0 -39 3.5 -61t10.5 -36q8 -15 18.5 -18.5t17.5 -3.5q11 0 20.5 7t16.5 18t12 23t8 20h3l-2 -56h20v532h-20v-440q-16 -46 -30 -68q-13 -19 -26 -19q-10 0 -14.5 4.5t-8.5 12.5q-7 15 -8 42t-1 59v409h-20zM124 658h-27l-38 -70h14z" />
    <glyph glyph-name="ucircumflex" unicode="&#xfb;" horiz-adv-x="190" 
d="M31 532v-425q0 -39 3.5 -61t10.5 -36q8 -15 18.5 -18.5t17.5 -3.5q11 0 20.5 7t16.5 18t12 23t8 20h3l-2 -56h20v532h-20v-440q-16 -46 -30 -68q-13 -19 -26 -19q-10 0 -14.5 4.5t-8.5 12.5q-7 15 -8 42t-1 59v409h-20zM93 625l21 -37h15l-37 74h-2l-36 -74h16l21 37h2z
" />
    <glyph glyph-name="udieresis" unicode="&#xfc;" horiz-adv-x="190" 
d="M31 532v-425q0 -39 3.5 -61t10.5 -36q8 -15 18.5 -18.5t17.5 -3.5q11 0 20.5 7t16.5 18t12 23t8 20h3l-2 -56h20v532h-20v-440q-16 -46 -30 -68q-13 -19 -26 -19q-10 0 -14.5 4.5t-8.5 12.5q-7 15 -8 42t-1 59v409h-20zM56 658v-72h18v72h-18zM110 658v-72h18v72h-18z
" />
    <glyph glyph-name="yacute" unicode="&#xfd;" horiz-adv-x="148" 
d="M148 532h-20l-20 -226q-5 -54 -9.5 -108t-9.5 -116h-2q-5 58 -12 114t-14 110l-29 226h-20l68 -499l-13 -134q-3 -34 -8 -60.5t-10 -44.5q-5 -17 -11.5 -27.5t-14.5 -10.5q-5 0 -9 3l-4 4l-4 4l-7 -16q8 -7 13 -9q4 -3 12 -3q14 0 24 12.5t17 31.5q7 18 13 50.5t8 61.5z
M115 658h-27l-38 -70h14z" />
    <glyph glyph-name="thorn" unicode="&#xfe;" horiz-adv-x="191" 
d="M49 28h1q7 -18 18 -29q7 -7 14 -9t12 -2q28 0 43 45q4 12 8.5 30.5t8 46.5t5.5 66t2 88q0 88 -5 141.5t-15 85.5q-8 31 -21 42t-27 11q-8 0 -13.5 -4t-11.5 -10q-7 -8 -11.5 -20.5t-6.5 -21.5h-1v239h-20v-975h20v276zM49 439q12 53 24 72q11 16 20 16q20 0 32 -48
q8 -29 12 -82.5t4 -132.5q0 -101 -6.5 -152.5t-13.5 -71.5q-12 -35 -28 -35t-28 25q-12 23 -16 65v344z" />
    <glyph glyph-name="ydieresis" unicode="&#xff;" horiz-adv-x="148" 
d="M138 532h-20l-20 -226q-5 -54 -9.5 -108t-9.5 -116h-2q-5 58 -12 114t-14 110l-29 226h-20l68 -499l-13 -134q-3 -34 -8 -60.5t-10 -44.5q-5 -17 -11.5 -27.5t-14.5 -10.5q-5 0 -9 3l-4 4l-4 4l-7 -16q8 -7 13 -9q4 -3 12 -3q14 0 24 12.5t17 31.5q7 18 12.5 50.5
t8.5 61.5zM26 658v-72h18v72h-18zM80 658v-72h18v72h-18z" />
    <glyph glyph-name="OE" unicode="&#x152;" horiz-adv-x="309" 
d="M255 366v19h-86v305h101v19h-120q-7 6 -14.5 10t-18.5 4q-19 0 -34.5 -17.5t-26.5 -60t-17 -113.5t-6 -178t6 -178t17 -113t26 -59.5t34 -17.5q21 0 36 14h123v19h-106v347h86zM147 49q0 -26 -9.5 -35.5t-20.5 -9.5q-13 0 -24 16.5t-19.5 57t-13.5 107.5t-5 169t5 169.5
t13.5 108t19.5 57t24 16.5q12 0 21 -11.5t9 -35.5v-609z" />
    <glyph glyph-name="oe" unicode="&#x153;" horiz-adv-x="314" 
d="M279 269q0 81 -6.5 140t-18.5 94q-14 41 -38 41q-7 0 -16 -5t-17 -20.5t-14 -44t-7 -74.5h-2q-2 66 -15.5 105t-42.5 39q-12 0 -24.5 -9.5t-22.5 -39.5t-16 -84.5t-6 -144.5q0 -86 5 -140.5t14 -85t22 -41.5t28 -11q19 0 30 13.5t17 34.5t7.5 47t3.5 52h2
q0 -44 4.5 -72.5t12.5 -45t18.5 -23t22.5 -6.5q30 0 44 32q8 17 11.5 41t5.5 51h-20q-3 -57 -12.5 -82t-26.5 -25q-12 0 -21 11t-16 40.5t-10.5 81t-3.5 131.5h108zM53 266q0 83 4.5 134.5t11.5 79.5t16 37.5t17 9.5t17 -9.5t16 -37.5t11.5 -79.5t4.5 -134.5
q0 -78 -4 -128.5t-11 -80t-15.5 -41t-18.5 -11.5q-8 0 -17 9.5t-16 37.5t-11.5 79t-4.5 134v1zM171 286q0 84 5.5 132t13 72t15 30t11.5 6q7 0 14.5 -13t14 -42t10.5 -74.5t4 -110.5h-88z" />
    <glyph glyph-name="Scaron" unicode="&#x160;" horiz-adv-x="199" 
d="M165 614q0 18 -3 37.5t-10.5 35t-19.5 26t-30 10.5q-28 0 -42 -19t-22 -45q-6 -19 -8 -41t-2 -48q0 -32 5 -59.5t13 -50.5q7 -21 17.5 -43.5t31.5 -62.5q12 -23 19.5 -38t12 -25.5t7.5 -18.5t5 -15q6 -21 9.5 -44.5t3.5 -51.5q0 -24 -2 -49t-7 -45q-5 -21 -16.5 -42
t-33.5 -21q-17 0 -26.5 11t-14 26t-5.5 31.5t-1 27.5h-22q0 -23 3 -44t11 -36.5t21 -24.5t34 -9q19 0 31.5 8.5t20.5 21t12 26t7 22.5q6 21 8 46t2 51q0 33 -4 59t-11 47q-4 13 -13 34t-31 63q-18 37 -30 61.5t-20 44.5q-6 19 -10.5 45.5t-4.5 56.5q0 47 8 81q6 20 16 36
t26 16q15 0 24 -11.5t13 -27t5 -30.5t1 -22h22zM99 764h-2l-38 37h-12l50 -68h2l50 68h-12z" />
    <glyph glyph-name="scaron" unicode="&#x161;" horiz-adv-x="152" 
d="M127 474q0 18 -4 30.5t-10 20.5q-13 19 -36 19q-12 0 -20 -6.5t-16 -20.5q-16 -29 -16 -83q0 -19 2.5 -38t6.5 -34q5 -21 13.5 -38.5t22.5 -40.5q11 -18 19.5 -34t14.5 -38q5 -17 6.5 -35t1.5 -38q0 -39 -3.5 -63.5t-8.5 -38.5q-12 -31 -29 -31q-12 0 -21.5 14.5
t-9.5 49.5h-20q0 -25 6.5 -41.5t10.5 -21.5q9 -13 18.5 -15.5t17.5 -2.5q14 0 25 11.5t19 29.5q9 21 12 49t3 62q0 29 -3 47.5t-7 31.5q-5 18 -13 35.5t-24 43.5q-16 25 -21.5 38t-10.5 31q-3 14 -5.5 32.5t-2.5 35.5q0 23 3 42t9 31q4 8 9 13.5t12 5.5q16 0 23 -16.5
t7 -36.5h19zM75 621h-3l-21 37h-15l37 -74h2l36 74h-16z" />
    <glyph glyph-name="Ydieresis" unicode="&#x178;" horiz-adv-x="164" 
d="M156 709h-20l-27 -184q-7 -46 -13 -92.5t-11 -97.5h-2q-7 51 -13 97t-14 93l-28 184h-20l64 -408v-301h22v301zM41 803v-66h18v66h-18zM105 803v-66h18v66h-18z" />
    <glyph glyph-name="florin" unicode="&#x192;" horiz-adv-x="153" 
d="M96 440l9 110q2 23 6 54.5t15 54.5q14 29 35 29q11 0 17 -6l5 16q-10 7 -23 7q-18 0 -30.5 -11t-19.5 -25q-10 -21 -15.5 -48t-9.5 -71l-9 -110h-32l-2 -17h32l-33 -382q-2 -22 -3.5 -37t-3.5 -27t-5 -23t-7 -23q-10 -28 -28 -28q-13 0 -19 6l-5 -16q11 -7 27 -7
q25 0 42 36q8 18 13 46.5t9 72.5l33 382h52l2 17h-52z" />
    <glyph glyph-name="circumflex" unicode="&#x2c6;" 
d="M57 625l21 -37h15l-37 74h-2l-36 -74h16l21 37h2z" />
    <glyph glyph-name="tilde" unicode="&#x2dc;" 
d="M23 603q3 19 11 19q5 0 6.5 -1.5t5.5 -3.5l10 -7q6 -5 12 -6.5t10 -1.5q11 0 17 9.5t8 21.5l-15 6q-3 -19 -11 -19q-5 0 -6.5 1.5t-5.5 3.5l-10 7q-11 8 -21 8q-11 0 -17.5 -9.5t-8.5 -21.5z" />
    <glyph glyph-name="endash" unicode="&#x2013;" horiz-adv-x="167" 
d="M28 258v-16h110v16h-110z" />
    <glyph glyph-name="emdash" unicode="&#x2014;" horiz-adv-x="333" 
d="M37 258v-16h260v16h-260z" />
    <glyph glyph-name="quoteleft" unicode="&#x2018;" horiz-adv-x="72" 
d="M17 709l27 -160h12l-15 160h-24z" />
    <glyph glyph-name="quoteright" unicode="&#x2019;" horiz-adv-x="72" 
d="M17 549h12l27 160h-24z" />
    <glyph glyph-name="quotesinglbase" unicode="&#x201a;" horiz-adv-x="72" 
d="M17 -80h12l27 160h-24z" />
    <glyph glyph-name="quotedblleft" unicode="&#x201c;" horiz-adv-x="138" 
d="M20 709l27 -160h12l-15 160h-24zM79 709l27 -160h12l-15 160h-24z" />
    <glyph glyph-name="quotedblright" unicode="&#x201d;" horiz-adv-x="138" 
d="M20 549h12l27 160h-24zM79 549h12l27 160h-24z" />
    <glyph glyph-name="quotedblbase" unicode="&#x201e;" horiz-adv-x="138" 
d="M20 -80h12l27 160h-24zM79 -80h12l27 160h-24z" />
    <glyph glyph-name="dagger" unicode="&#x2020;" horiz-adv-x="175" 
d="M96 544l3 179h-22l3 -179l-63 3v-20l63 3q-1 -37 -2.5 -73.5t-0.5 -74.5q0 -121 2 -241.5t4 -242.5h10q2 122 3.5 242.5t2.5 241.5q0 38 -1 74.5t-2 73.5l63 -3v20z" />
    <glyph glyph-name="daggerdbl" unicode="&#x2021;" horiz-adv-x="175" 
d="M96 212q1 43 2 85.5t1 84.5q0 38 -1 74.5t-2 73.5l63 -3v20l-63 -3l3 179h-22l3 -179l-63 3v-20l63 3q-1 -37 -2 -73.5t-1 -74.5q0 -42 1 -84.5t2 -85.5l-63 3v-20l63 3l-3 -282h22l-3 282l63 -3v20z" />
    <glyph glyph-name="bullet" unicode="&#x2022;" horiz-adv-x="128" 
d="M60 382q-17 0 -29.5 -12t-12.5 -29t12.5 -29.5t29.5 -12.5t29 12.5t12 29.5t-12 29t-29 12z" />
    <glyph glyph-name="ellipsis" unicode="&#x2026;" horiz-adv-x="333" 
d="M57 80v-80h20v80h-20zM157 80v-80h20v80h-20zM257 80v-80h20v80h-20z" />
    <glyph glyph-name="perthousand" unicode="&#x2030;" horiz-adv-x="484" 
d="M155 539q0 86 -13.5 133t-46.5 47t-46.5 -47t-13.5 -133t13.5 -133t46.5 -47t46.5 47t13.5 132v1zM274 718h-18l-198 -729h19zM95 375q-12 0 -20 12t-12.5 34t-6 51.5t-1.5 65.5t1.5 65.5t6 51.5t12.5 34t20 12t19.5 -12t12 -34t6.5 -51.5t2 -65.5t-1.5 -65.5t-6 -51.5
t-12 -34t-19.5 -12h-1zM301 167q0 86 -13.5 133t-46.5 47t-46.5 -47t-13.5 -133t13.5 -133t46.5 -47t46.5 47t13.5 132v1zM448 166q0 86 -13.5 133t-46.5 47t-46.5 -47t-13.5 -133t13.5 -133t46.5 -47t46.5 47t13.5 132v1zM241 2q-12 0 -20 12t-12.5 34t-6 51.5t-1.5 65.5
t1.5 65.5t6 51.5t12.5 34t20 12t19.5 -12t12 -34t6.5 -51.5t2 -65.5t-1.5 -65.5t-6 -51.5t-12 -34t-19.5 -12h-1zM389 2q-12 0 -20 12t-12.5 34t-6 51.5t-1.5 65.5t1.5 65.5t6 51.5t12.5 34t20 12t19.5 -12t12 -34t6.5 -51.5t2 -65.5t-1.5 -65.5t-6 -51.5t-12 -34t-19.5 -12
h-1z" />
    <glyph glyph-name="guilsinglleft" unicode="&#x2039;" horiz-adv-x="90" 
d="M28 248v2l55 152v35l-77 -187v-2l77 -187v35z" />
    <glyph glyph-name="guilsinglright" unicode="&#x203a;" horiz-adv-x="90" 
d="M61 248l-55 -152v-35l77 187v2l-77 187v-35l55 -152v-2z" />
    <glyph glyph-name="trademark" unicode="&#x2122;" horiz-adv-x="361" 
d="M163 709h-124v-15h53v-341h18v341h53v15zM245 368q-2 43 -6.5 85.5t-10.5 85.5l-24 170h-28v-356h16v171q0 43 -1 85t-2 87h3q4 -44 10 -86.5t12 -85.5l24 -171h16l26 171q7 43 13 85t10 87h3q-1 -44 -2 -86.5t-1 -85.5v-171h18v356h-28l-26 -170q-6 -42 -11.5 -84.5
t-7.5 -86.5h-3z" />
    <glyph glyph-name="minus" unicode="&#xe000;" horiz-adv-x="317" 
d="M32 245h254v16h-254v-16z" />
    <glyph glyph-name="notequal" unicode="&#xe001;" horiz-adv-x="245" 
d="M134 634v-505q0 -74 7 -107.5t36 -33.5q8 0 13.5 3.5t7.5 5.5l-6 16q-3 -3 -6 -5.5t-9 -2.5q-18 0 -20.5 39t-2.5 112v488zM246 457q-5 -20 -11.5 -31.5t-19.5 -11.5t-19 11.5t-11 31.5h-16q1 -8 4.5 -18.5t8.5 -19.5t13.5 -15.5t20.5 -6.5t20.5 6.5t13.5 15.5t8 19.5
t4 18.5h-16zM95 457q-5 -20 -11 -31.5t-19 -11.5t-19 11.5t-11 31.5h-16q1 -8 4.5 -18.5t8.5 -19.5t13.5 -15.5t20.5 -6.5t20.5 6.5t13.5 15.5t8 19.5t4 18.5h-17zM196 -43q-5 -20 -11.5 -31.5t-19.5 -11.5t-19 11.5t-11 31.5h-16q1 -8 4.5 -18.5t8.5 -19.5t13.5 -15.5
t20.5 -6.5t20.5 6.5t13.5 15.5t8 19.5t4 18.5h-16z" />
    <glyph glyph-name="infinity" unicode="&#xe002;" horiz-adv-x="276" 
d="M147 634l-44 -505q-7 -74 -3 -107.5t33 -33.5q8 0 14 3.5t8 5.5l-4 16q-4 -3 -7 -5.5t-9 -2.5q-18 0 -17 39t7 112l43 488zM243 457q-6 -20 -13.5 -31.5t-20.5 -11.5t-18 11.5t-8 31.5h-16q0 -8 2 -18.5t6.5 -19.5t12.5 -15.5t20 -6.5t21 6.5t15 15.5t9.5 19.5t5.5 18.5
h-16zM93 457q-6 -20 -13.5 -31.5t-20.5 -11.5t-18 11.5t-8 31.5h-16q0 -8 2 -18.5t6.5 -19.5t12.5 -15.5t20 -6.5t21 6.5t15 15.5t9.5 19.5t5.5 18.5h-16zM149 -43q-6 -20 -13 -31.5t-20 -11.5t-18.5 11.5t-8.5 31.5h-16q1 -8 3 -18.5t6.5 -19.5t12 -15.5t19.5 -6.5t21 6.5
t15 15.5t9.5 19.5t5.5 18.5h-16z" />
    <glyph glyph-name="lessequal" unicode="&#xe003;" horiz-adv-x="276" 
d="M162 634l-88 -505q-13 -74 -12 -107.5t30 -33.5q8 0 14 3.5t9 5.5l-3 16q-4 -3 -7.5 -5.5t-9.5 -2.5q-18 0 -13.5 39t17.5 112l85 488zM243 457q-8 -20 -16 -31.5t-21 -11.5t-17 11.5t-6 31.5h-16q0 -8 1 -18.5t4.5 -19.5t11 -15.5t19.5 -6.5t21.5 6.5t16 15.5t11 19.5
t7.5 18.5h-16zM93 457q-8 -20 -16 -31.5t-21 -11.5t-17 11.5t-6 31.5h-16q0 -8 1 -18.5t4.5 -19.5t11 -15.5t19.5 -6.5t21.5 6.5t16 15.5t11 19.5t7.5 18.5h-16zM106 -43q-8 -20 -16.5 -31.5t-21.5 -11.5t-17 11.5t-5 31.5h-16q0 -8 0.5 -18.5t4.5 -19.5t11 -15.5t19 -6.5
t21.5 6.5t16.5 15.5t11.5 19.5t7.5 18.5h-16z" />
    <glyph glyph-name="greaterequal" unicode="&#xe004;" horiz-adv-x="276" 
d="M194 634l-133 -505q-20 -74 -21.5 -107.5t27.5 -33.5q8 0 14.5 3.5t8.5 5.5l-1 16q-4 -3 -8 -5.5t-10 -2.5q-18 0 -10 39t27 112l128 488zM259 457q-10 -20 -19 -31.5t-22 -11.5t-16.5 11.5t-2.5 31.5h-16q-1 -8 -1 -19q0 -10 3 -19t9.5 -15.5t18.5 -6.5t22 6.5
t17.5 15.5t13.5 19.5t9 18.5h-16zM109 457q-10 -20 -19 -31.5t-22 -11.5t-16.5 11.5t-2.5 31.5h-16q-1 -8 -1 -19q0 -10 3 -19t9.5 -15.5t18.5 -6.5t22 6.5t17.5 15.5t13.5 19.5t9 18.5h-16zM78 -43q-10 -20 -19.5 -31.5t-22.5 -11.5t-16 11.5t-2 31.5h-16q-1 -8 -1 -18
q0 -11 3 -20t9.5 -15.5t18.5 -6.5t22 6.5t17.5 15.5t13.5 19.5t9 18.5h-16z" />
    <glyph glyph-name="partialdiff" unicode="&#xe005;" horiz-adv-x="323" 
d="M256 634l-177 -505q-26 -74 -30.5 -107.5t24.5 -33.5q8 0 14.5 3.5t9.5 5.5l-1 16q-4 -3 -7.5 -5.5t-9.5 -2.5q-18 0 -7 39t37 112l170 488zM306 457q-11 -20 -21.5 -31.5t-23.5 -11.5t-15 11.5t0 31.5h-16q-2 -8 -3 -18.5t1.5 -19.5t8.5 -15.5t18 -6.5t22.5 6.5t19 15.5
t15 19.5t10.5 18.5h-16zM156 457q-11 -20 -21.5 -31.5t-23.5 -11.5t-15 11.5t0 31.5h-16q-2 -8 -3 -18.5t1.5 -19.5t8.5 -15.5t18 -6.5t22.5 6.5t19 15.5t15 19.5t10.5 18.5h-16zM81 -43q-11 -20 -21.5 -31.5t-23.5 -11.5t-15 11.5t0 31.5h-16q-2 -8 -3 -18.5t1.5 -19.5
t8.5 -15.5t18 -6.5t22.5 6.5t19 15.5t15 19.5t10.5 18.5h-16z" />
    <glyph glyph-name="summation" unicode="&#xe006;" horiz-adv-x="369" 
d="M317 634l-221 -505q-32 -74 -39.5 -107.5t21.5 -33.5q8 0 14.5 3.5t10.5 5.5l1 16q-5 -3 -9 -5.5t-10 -2.5q-18 0 -3.5 39t46.5 112l214 488zM352 457q-14 -20 -25 -31.5t-24 -11.5t-14.5 11.5t3.5 31.5h-16q-3 -8 -4.5 -18.5t-0.5 -19.5t6.5 -15.5t17.5 -6.5t23 6.5
t20.5 15.5t17 19.5t12.5 18.5h-16zM202 457q-14 -20 -25 -31.5t-24 -11.5t-14.5 11.5t3.5 31.5h-16q-3 -8 -4.5 -18.5t-0.5 -19.5t6.5 -15.5t17.5 -6.5t23 6.5t20.5 15.5t17 19.5t12.5 18.5h-16zM83 -43q-13 -20 -24.5 -31.5t-24.5 -11.5t-14 11.5t3 31.5h-16
q-3 -8 -4.5 -18.5t0 -19.5t7 -15.5t17.5 -6.5t23 6.5t20 15.5t16.5 19.5t12.5 18.5h-16z" />
    <glyph glyph-name="product" unicode="&#xe007;" horiz-adv-x="424" 
d="M384 634l-265 -505q-39 -74 -49.5 -107.5t18.5 -33.5q8 0 15 3.5t10 5.5l3 16q-5 -3 -9.5 -5.5t-10.5 -2.5q-18 0 0.5 39t56.5 112l256 488zM402 457q-14 -20 -26.5 -31.5t-25.5 -11.5t-13 11q0 12 5 32h-16q-3 -8 -5.5 -18.5t-2 -19.5t5.5 -15.5t17 -6.5t23.5 6.5
t21.5 15.5t18.5 19.5t13.5 18.5h-16zM252 457q-14 -20 -26.5 -31.5t-25.5 -11.5t-13 11q0 12 5 32h-16q-3 -8 -5.5 -18.5t-2 -19.5t5.5 -15.5t17 -6.5t23.5 6.5t21.5 15.5t18.5 19.5t13.5 18.5h-16zM90 -43q-15 -20 -27.5 -31.5t-25.5 -11.5t-13 12q0 11 6 31h-16
q-3 -8 -6 -18.5t-2.5 -19.5t5.5 -15.5t17 -6.5t23.5 6.5t22 15.5t18.5 19.5t14 18.5h-16z" />
    <glyph glyph-name="pi" unicode="&#xe008;" horiz-adv-x="480" 
d="M447 634l-309 -505q-45 -74 -59 -107.5t15 -33.5q8 0 15.5 3.5t11.5 5.5l3 16q-5 -3 -9 -5.5t-10 -2.5q-18 0 3 39t66 112l299 488zM450 457q-17 -20 -30 -31.5t-26 -11.5t-12.5 11.5t8.5 31.5h-16q-4 -8 -7.5 -18.5t-4 -19.5t4 -15.5t16.5 -6.5t24 6.5t23.5 15.5
t20.5 19.5t15 18.5h-16zM300 457q-17 -20 -30 -31.5t-26 -11.5t-12.5 11.5t8.5 31.5h-16q-4 -8 -7.5 -18.5t-4 -19.5t4 -15.5t16.5 -6.5t24 6.5t23.5 15.5t20.5 19.5t15 18.5h-16zM94 -43q-17 -20 -30 -31.5t-26 -11.5t-12.5 11.5t8.5 31.5h-16q-4 -8 -7.5 -18.5t-4 -19.5
t4 -15.5t16.5 -6.5t24 6.5t23 15.5t20.5 19.5t15.5 18.5h-16z" />
    <glyph glyph-name="integral" unicode="&#xe009;" horiz-adv-x="516" 
d="M496 634l-353 -505q-52 -74 -68.5 -107.5t12.5 -33.5q8 0 15.5 3.5t11.5 5.5l5 16q-5 -3 -9.5 -5.5t-10.5 -2.5q-18 0 7 39t76 112l341 488zM484 457q-18 -20 -32.5 -31.5t-27.5 -11.5t-11 11.5t11 31.5h-16q-5 -8 -9 -18.5t-5.5 -19.5t2.5 -15.5t16 -6.5t24.5 6.5
t24.5 15.5t22 19.5t17 18.5h-16zM334 457q-18 -20 -32.5 -31.5t-27.5 -11.5t-11 11.5t11 31.5h-16q-5 -8 -9 -18.5t-5.5 -19.5t2.5 -15.5t16 -6.5t24.5 6.5t24.5 15.5t22 19.5t17 18.5h-16zM84 -43q-18 -20 -32.5 -31.5t-27.5 -11.5t-11 11.5t11 31.5h-16q-5 -8 -9 -18.5
t-5.5 -19.5t2.5 -15.5t16 -6.5t24.5 6.5t24.5 15.5t22 19.5t17 18.5h-16z" />
    <glyph glyph-name="Omega" unicode="&#xe00a;" horiz-adv-x="276" 
d="M259 457h-16q-3 -20 -8 -31.5t-18 -11.5t-20.5 11.5t-13.5 31.5h-16q2 -8 5.5 -18.5t9.5 -19.5t15 -15.5t21 -6.5t20 6.5t12.5 15.5t6.5 19.5t2 18.5zM109 457h-16q-3 -20 -8 -31.5t-18 -11.5t-20.5 11.5t-13.5 31.5h-16q2 -8 5.5 -18.5t9.5 -19.5t15 -15.5t21 -6.5
t20 6.5t12.5 15.5t6.5 19.5t2 18.5zM174 129l-45 505l-20 10l42 -488q7 -73 7.5 -112t-17.5 -39q-6 0 -9 2.5t-6 5.5l-5 -16q2 -2 8 -5.5t14 -3.5q29 0 33 33.5t-2 107.5zM203 -43h-16q-3 -20 -8 -31.5t-18 -11.5t-20.5 11.5t-13.5 31.5h-16q2 -8 5.5 -18.5t9.5 -19.5
t15 -15.5t21 -6.5t20 6.5t12.5 15.5t6.5 19.5t2 18.5z" />
    <glyph glyph-name="approxequal" unicode="&#xe00b;" horiz-adv-x="271" 
d="M201 422q-29 24 -66 24q-38 0 -65 -24l-40 40l-11 -11l40 -40q-25 -27 -25 -66q0 -37 24 -66l-39 -39l11 -11l39 39q29 -24 66 -24q39 0 66 25l40 -40l11 11l-40 40q24 27 24 65q0 37 -24 66l40 40l-11 11zM135 429q35 0 59 -24.5t24 -59.5t-24 -59.5t-59 -24.5t-59 24.5
t-24 59.5t24 59.5t58 24.5h1z" />
    <glyph glyph-name="lozenge" unicode="&#xe00c;" horiz-adv-x="107" 
d="M34 634v-505q0 -74 7 -107.5t36 -33.5q8 0 13.5 3.5t7.5 5.5l-6 16q-3 -3 -6 -5.5t-9 -2.5q-18 0 -20.5 39t-2.5 112v488z" />
    <glyph glyph-name="apple" unicode="&#xe00d;" horiz-adv-x="290" 
d="M64 404v110v195h-22v-709h22v385h24l94 -385h21l-100 407l76 302h-20l-48 -194q-5 -18 -9.5 -38t-8 -36t-6 -26.5l-2.5 -10.5h-19h-2zM204 400l1 -1l-5 -82h20l-5 82l1 1l70 -45l10 18l-76 36v1l76 37l-10 18l-70 -47l-1 1l5 84h-20l5 -84l-1 -1l-69 47l-10 -18l75 -37
v-1l-75 -36l10 -18z" />
    </font>
</defs>
</svg>
